<svg width="272" height="295" viewBox="0 0 272 295" xmlns="http://www.w3.org/2000/svg"><title>path4432</title><path d="M24.18 227.247l-.168.68-.7 2.1-.353.526-.176.35-.175.525-.352.524-.175.352-.176.525-.35.523-.175.352-.35.525v.524l-.176.526.35.35.527.176h1.577l2.103-.7.7.174.702.35.526.526.526.35.527.7.35.35.175.527.526.35.526.175.35-.176h.526l.7-.7.352-.524.175-.35.35-.527.352-.35h.35l.525.176h.7l2.63.875h.526l.526.178h.526l.7-.177.527-.348.35-.526.526-.35.527-.175.35-.174h.526l.7-.175.527.176h1.052l.525.175h1.053l.525.176h2.278l.526-.175.35-.174.525-.175.35-.35.352-.176.35-.35.35-.175.526-.177h.526l.525.176.35.35.176.35.176.525.35.525.35.7.702.7.176.526v.525l-.352.527v1.05l.176.526.525.35h.702l.525.175h1.052l.526.175h.526l.35.35v1.927l.175.525.876.876.525.35.352.352.526.35.877.876.35.525.35.35.35.7.176.526.177.35.35 1.05.175.35v.526l.176.525v.525l.175.526v1.577l-.526 1.575-.35.526-.176.35-.35.35h-1.402l-.35.176-.35.35v.7l-.176.525v1.05l.175.35.35.527 1.403 1.4.526.35.35.526.35.35.527.176.527.348h2.453l.526.352.35.7v1.4l-.176.525v.7l.175.352.174.525 1.052 1.05.35.175.702.176h1.052l1.05.525 1.052.7.526.175.525-.175h.527l.525-.35 1.052-.35h.7l.527.175h1.226l1.578.525h.526l1.577.525h.527l1.05.35h.527l.526.176.35.174.526.175.526-.527.526-.35.35-.35.176-.35.7-.7.352-.176.525-.175h.352l1.05.35h.527l.7.176.527.175h.524l1.58.525h1.577l.525-.35.35-.35.702-.352.526-.175h.526l.7.176.527-.175.35-.175 1.052-1.05.175-.35.7-.702h.527l.526-.174h.525l.35-.176.702-.7.35-.525.35-.352.176-.35.35-.176 1.052-.35h1.577l.527.175h1.577l.525.175.525-.175.7-.35.352-.525.175-.35.35-.35.176-.527.702-.7.525-.175.35-.175.35-.7v-.526l-.174-.352v-.524l.175-.526.35-.35.352-.7.176-.526v-1.05l.174-.526.35-.175.35-.35h.527l.525-.174.35-.176.526-.175h.527l.526-.175h.526l.524-.175.35.175.35.35 1.053.7 1.05 1.05.527.352 1.402 1.4.526.175.7.7.177.526.35.526.35.348.35.526.35.35.35.526.176.35.35.524 1.053 1.052.174.35.7.7.527.176h.702l.526.175h1.05l.526-.175h2.28l.524.525.176.35.352 1.05v.876l.174.526-.174.525v1.4l-.352 1.05-.176.352-.35.35h-.176l-.526-.175h-.524l-.527-.175h-.7l-.176.175h-.176l-.175.175-.353.525-.35.35-.35.526-.175.35-.35.525-.177.525v.7l.35.7.527.35.35.527.527.35.35.35.525.35.35.35.176.526.176.352v.525l.176.7-.176.7.176.526v.525l.35.7.526.35.526.525.525.176.524.35.352.174h.525l.352.176h1.227l.525-.176.525.176h.527l.7.7v.7l-.176.352-1.05 1.05-.35.175-.352.525-.175.35.35.35.176.352.524.7.526.176.526.35.35.35.526.175.35.35.526.176.527.352.35.35.525.175.527.35.35.176.525.35h5.42v.005l.35.176.35.35.525.35.352.176h.7l.7-.35 1.053-.7.35-.526.7-.7.176-.35.35-.526.176-.35.35-.526.176-.35.35-.525.176-.35.35-.35.176-.352.7-.7.526-.175.527-.35 1.05-.35.527-.35 1.05-.352.526-.35.527-.176.525-.35.525-.175h1.053l.7-.176h.525l.702.177.35.35.176.35.7.7.176.352.35.35.35.174.526-.175 1.05-.7.353-.177.524-.35.35-.35.527-.352.702-.173h1.927l.525.174.35.352.177.35.175.526.175.35v.526l.175.525.177.35.35 1.05.525 1.05.175.176 1.052.35h.524l.527.175.7.177h3.156l.525.175h3.33l.526.176h1.052l.525-.176h.527l1.052-.35h.524l.526-.176h1.402l.35.175.177.527.35.35.35.176h1.227l.525.175h1.577l.525-.35.526-.176.526-.35.35-.175 1.052-.7.526-.177.35-.35.526-.175.526-.35.526-.176.35-.352.526-.174.526-.35.525-.177.35-.35.525-.174h.526l.527-.176h.525l.525-.175h1.58l1.05-.35h.35l.525-.352.526-.7.176-.524.175-.7.525-1.577.876-.877.177-.35.525-.175 1.577-1.05 1.577-.527.525-.348.35-.352.176-.7.176-.524.35-.526.35-.7 1.054-1.05.525-.35.7-.176.526-.176.525-.35.525-.175.35-.35.352-.526.7-.7.177-.526.35-.524.174-.525.176-.35.35-.525.176-.524.35-.35.35-1.05.352-.525.176-.35.35-.526.35-1.053.177-.35 1.402-4.202.176-.35 1.753-5.254v-.524l.35-1.052.176-.7v-.524l.176-.526v-1.227l-.176-.524-.175-.7v-.525l-.174-.526v-.35l.175-.525.352-.525.526-.176 1.05-1.05.176-.526.176-.7v-2.102l.176-.525v-1.05l.175-.525.35-.35.178-.35 2.102-2.104.35-.524.177-.526v-1.225l-.176-.702-.524-.525-.7-.175-.352-.35-.526-.352-.35-.174-.176-.526-.7-.7-.526-1.576v-4.728l.175-.525V226l.352-1.05v-.35l.525-1.576v-.524l.526-1.578v-.524l.526-1.576v-.525l.173-.525.352-.7.35-.526.35-.174 1.053-.7.35-.352.176-.524.35-.352.176-.524v-.525l.175-.35v-5.955l.177-.525.174-.35-.174-.876-.352-.526-.35-.35-.526-.352-.876-.874-.702-1.05v-1.227l.176-.35.35-.35.35-.526.878-.875.35-.176.176-.35.35-.35.352-.526.175-.526.35-.524.176-.526.35-.526.175-.524.35-.7.176-.525v-.525l-.524-.35-.35-.35-1.052-.352-.7-.175h-.353l-.35.35-.35.526-.35 1.052-.35.524-.177.526-.176.35-.047.143c-4.768 24.672-27.282 38.042-56.378 38.042-32.12 0-52.872-15.293-63.026-35.338l28.107-16.316c7.414 12.094 17.06 20.984 34.12 20.984 14.33 0 23.485-7.156 23.485-17.044 0-11.85-9.406-16.047-25.18-22.94l-8.647-3.707c-24.957-10.624-41.537-23.933-41.537-52.07 0-25.916 19.764-45.646 50.652-45.646 21.99 0 37.8 7.648 49.192 27.67l-26.933 17.278c-5.93-10.624-12.327-14.81-22.26-14.81-10.13 0-16.55 6.422-16.55 14.81 0 10.367 6.426 14.564 21.266 20.985l8.646 3.7c15.837 6.786 27.957 13.642 35.768 23.04l.036-.11.35-1.4-.35-1.05-.35-.174-.526-.177h-1.402l-.526-.35-.176-.7-.35-1.05-.7-1.052-.176-.524-.176-.35-.35-.526v-1.225l.174-.526.352-.352.175-.524.35-.526.175-.35h.525l1.052.35.35.175.352.7.35 1.052.176.7.175.35.7.7 1.054.35h1.75l.527-.175.35-.174h.526l.525-.175.35-.175.878-.876v-.525l.175-.35v-1.752l-.174-.525v-1.4l.175-.527.703-1.05.174-.35-.174-.35-.352-.175-.35-.35-.35-.7-.35-.525-.177-.526v-.525l-.175-.7-.176-.527v-1.577l.35-.7.352-.175.526-.35.35-.525.175-.35.352-.35v-1.226l-.352-1.052-.175-.35-.175-.525v-.526l-.175-.525v-.35h.35l1.053.7.525.175.525.35.526.176.7.35h.35l.176-.175h.176l.35-.525.175-.35.35-.526.352-.35.35-.526-.175-.524-.176-.35-1.227-1.226-.527-.35-.526-.526-.35-.525v-.526l-.175-.526v-.525l-.176-.7v-.7l.175-.352v-.35l.35-.524 1.578-.526.525-.35.176-.35v-.526l-.176-.35-.35-.35-.525-.35-.352-.35-.35-.7v-1.052l-.175-.525v-1.576l-.175-.524v-2.277l-.176-.526-.35-.526-.35-.175-.527-.175-.525-.7-.176-.526v-1.75l.176-.526.7-1.05.35-.35.352-.527v-1.752l-1.052-1.05-.525-.35-.35-.527-1.053-1.05-.525-.35-.352-.524-1.052-1.052-1.052-1.575-.524-1.577-.177-.7-.35-1.05-.175-.702-.352-.524-.35-1.05v-.526l-.176-.526v-.525l-.175-.35v-.526l.175-.7v-.527l.176-.524.175-.7.527-1.577.35-.525.176-.35.35-.525.176-.525.35-.35.35-.525.352-.35.525-.35.35-.352.526-.175.35-.35.527-.176.175-.525.175-.7.175-.525.352-.526.175-.525.352-.524.174-.526.35-.526 1.578-.524.7-.176v-1.05l-.35-.526-.175-.7-.174-.525.525-.176.702-.174.526-.175h1.227l.525.175h1.754l.7.174 1.052-.7.7-.7.526-.35.702-.7.525-.352.7-.7.525-.175.352-.175 1.05-.35h1.053l3.154-1.05.35-.176 2.104-.702.352-.35.175-.525.175-.35.35-.526-.175-.525V58.94l-.35-.35-.352-.525-.175-.525-.35-.525-.176-.525-.7-.35.35-.7.876-.877.175-.525.352-.35.175-.7v-5.954l.175-.526.35-.524.352-.176h.526l.35.7.175.526.702.7.525.176h2.103l.526-.175h.525l1.05-.35h.527l.526-.176.525-.35.526-.7.7-2.103v-.525l.176-.7v-.526l-.175-.525-.35-.174h-1.754l-.524-.176h-.526l-.526-.175-.35-.35-.176-.35-.175-.526-.35-.525-.176-.35-1.402-1.402-1.052-1.575-.175-.35-.877-.877-.525-.35-.35-.524-.35-.35-.526-.352-1.052-.35-.7-.174-1.054-.35-.525-.35-.7-.176-.353-.175v-.527l-.175-.35v-1.05l-.175-.526V27.07l-.176-.525V24.97l-.175-.526v-1.05l.176-.7.352-1.052.35-.525.35-.35.527-.35.35-.526.35-.35.35-.525.352-.35.7-1.05v-.526l.177-.526v-1.226l.173-.525V13.76l.176-.523v-.7l.174-.35.35-.527.176-.525.35-.35.352-.525.175-.35.35-1.05v-.527l.176-.525V6.582l.526-1.577V4.48l.174-.525.413-.576-2.04-1.28-.525-.174h-.527l-.525-.175h-6.31l-.7-.174-.526-.175h-.526l-.525-.174h-.525l-.702-.176-.525-.174h-.525L249.17.7h-.526l-.7-.175-.527-.175h-.525L245.84 0l-.7.175-.527.175-1.577 1.05-.35.35-.35.527-.352.35-.35.524-.176.352-.35.35-.352.526-.526.35-.7.7-.525.35-.7.176-.528.175-.525.35-.35.175-.352.525-.175.526-.35.525-.176.526-.702.7-.525.176-.352.175-.524-.35-.7-.35-.877-.175-.526.35-.526.175-.526.35-.35.35-.527.35-.35.526-.526.35-.35.35-.527.35-1.578 1.577-.524.35-.35.35-.527.35-.35.526-.526.35-.35.35-.526.35-.35.35-.35.527-.526.35-.35.35-1.053.7-.524.176-.526.35h-.525l-.525-.176h-.7l-.353-.35-.525-.35-.35-.35-1.053-.7-.35-.527-1.052-.35-.527-.35h-2.628l-1.577.525-.7.175h-.526l-2.63.875h-2.805l-.526-.35-.352-.175-.525-.35-.526-.175-.524-.35-.527-.176-.525-.35-.525-.175-.35-.35-.526-.175-.526-.35-.526-.175-.526-.35-.526-.175-.35-.35-.526-.175-.525-.35-.526-.176-.526-.35-.526-.175-.525-.353-.35-.35-.527-.174-.525-.35-.525-.176-.525-.35-.526-.175-.526-.35-.35-.176-.525-.35-.527-.175-.525-.35-.525-.174-.524-.35-.526-.175-.35-.35-.7.175-3.682 1.226-2.103-.7-.527-.35-4.207-1.4-.525-.35-.524-.176-1.052.35h-.526l-.526.175h-.525l-.526.175-.7.175v.525l-.35 1.05-.175.7-.176.527v.524l-.177.526-.175.7-.175.526.702 2.102.7 1.05.175.526.7 1.05.176.526v.7l-.175.526v.524l-.174.7-.526.35-.526.526-.7.35-.526.176-.35.525-.527.524-.875 2.627v1.052l-.175.525v.7l-.175.526v1.05l-.176.525v.702l-.176.525v1.05l-.176.526v.526l-.175.7v.526l-.175.526-.35.525-.352 1.05-.35.526-.176.524-.35.526-.352 1.05-.35.35-.176.526-.525.35-.35.525-.527.352-.35.35-.526.35-.35.35-1.053.7-.35.352-.525.175-.526.35-1.052.35-.526.35-.35.175-.526.175-.526.35-1.05.35-.527.35-.525.176-.526.35-.35.175-.526.177-.526.35-1.052.35-.525.35-.525.176-.35.175-.527.35-1.05.35-.527.35h-2.278l-2.628-.875h-.7l-1.58-.526h-.524l-.526.176h-1.228l-.525.175h-.527l-.525.175-.35.35-.527.175-.526.35-1.05.35-.352.35-.525.177-.526.35-1.052.35h-.525l-.35.175-.527-.35-.35-.175-.526-.35-.35-.176-.176-.7v-.526l-.174-.526V44.48l-.176-.524-.175-.7v-.526l-.175-.7-.526-.35-1.577-1.577-.702-.175-.525-.176h-.7l-.527-.174-.7-.175-.526.175h-1.577l-.7.174h-1.054l-.525.176H114.4l-.526.175h-2.98l-.525.175h-2.98l-.525.175h-2.805l-.526-.175h-.7l-1.05-.35h-.527l-1.05-.35h-.528l-.7-.175h-.526l-1.052-.35h-.527l-.525-.176h-.524l-.7-.175-.527-.175h-.526l-.525-.175h-.526l-.526-.176-.7-.174h-.527l-1.05-.35h-.527l-.526-.176h-8.94l-1.05.35-.526.35-2.103.7-.525.35-.525.177-.35.175-1.053.35-.526.35-.525.175-.35.526-.876.874-.702 1.05-.176.35-.175.527-.35.526-.35 1.05-.352.35-.174.526-1.052 1.576-.175.526-1.052.35-.524.35-.7.175-1.053-.35-.525-.352-.527-.175-.35-.35-.524-.35-.352-.35-.525-.352-.702-.7-.526-.35-.7-.7-.527-.35-.35-.35-.526-.175-.352-.35-.525-.175-.527-.35h-1.05l-.702-.175h-.526l-.526-.176H52.88l-.526.175h-2.98l-.526.175H46.57l-.526.175h-2.278l-.526.175h-1.753l-.526.175-.7.175-1.05.35-.35.526-1.054 1.05v.526l.352 1.05v.526l.175.526-.175.35-.352.35-.35 1.4-.35.702.525.175h1.053l.526.176h.524l.176.525.35.525.176.526.175.352-.525 1.576-.175.35-.7.175h-1.753l-1.053-1.05-1.05.525-.352.35-.35.525-.35.35v.526l-.176.35v1.224l-.175.526-.35.35-.35.525-1.403 1.402-.35.174-.35.353-.527.35-.35.175-.526.35-1.577.526-.35.175-.525.35-.176.524.176.35.174.526.35.525v1.05l-.175.525-.7.7-.35.527-.35.35-.35.525-.352.175-.524.175H23.96l-.524-.175h-1.052l-.7.175-.35 1.05-.177.702v1.225l-.175.7-.526.175-.525.35-.35.175-.526.176-.35.525-.35 1.052-.877.875-.176.526-.35.35-.35.525-.35.35-.35.525-.177.35-1.05 1.577-.352.35v.7l.176.35.352.526.174.524v1.577l.175.7-.525.35-.35.35-.35.526-1.58 1.05-.35.35-1.05.702-.35.525-.352.35.526.176.35.35 1.052.35.7.175v1.052l-1.05 1.05-.175.7v.526l-.176.526v1.926l-.175.35-.35 1.05-1.052.35H8.188l-.526.176h-.526l-.526.175-.7.176.175.526.174.35v.525l.175.525-1.05 3.152.173.526.176.35v.525l.175.525-.352.35-.174.35-.352.526-.876.875.35 1.053v.524l.176.526-.526.174-.7.35-.35.35-.527.352-.352.348-.35.526-.526.35-.35.35v1.227l.35.35.526.35.35.35.526.35.352.352.35.174v.876l-.7.176-.35.35-.352.175-.526.35v1.05l.35.35.35.526.35.35 2.63.875h.526l.526.35.526.176.35.35-.35 1.052-.35.525-.35.7-.352.35-.526.35.7.35 1.404 1.402.35 1.05-.174.7-.352.526.176.525.175.7.175.527.7 1.05 1.052.7.352.176.525.175v1.226l-.524-.175-.702-.176-1.05.35-.702 1.05v1.226l-.176.7.352 1.052v.7l.7.35H9.24l.35.35.35.176.352.35.176.525.35.35v.526l.175.524v.526l.35 1.05v.526l.35 1.05.35.7.352.526.35.35v.7l-.525.35-.526.176v.7l.176.526v1.225l.174.525v.526l.175.7-.702.702-.526.35-.35.35-.35.525-1.052 1.052-1.05.7-.353.35-1.05.7v1.05l-.176.525v.526l-.35.35-.175.525-.35.527-.176.524-.352.35-.175.526-.35.35v2.8l-.238.754-.063 1.1-.174.353-.527.348-.35.177-.7-.177H1.052l-.35.352-.176.7.176.35v.35l.525 1.577.176.35.525 1.577v.524l.176.526v1.75l-.35 1.052v.525l-.177.525v.526l-.35 1.05v.527l-.35 1.05v.525l-.175.526v.525l-.176.7-.175.525v.526l-.175.7v4.903l-.175.526v4.553l.175.524v1.052l.176.524v1.05l.352 1.052.525.176h1.05l.352-.176.876-.876.35-.175h.526l.842.42 22.93-13.87c5.433 9.633 10.376 17.776 22.26 17.776 11.362 0 18.53-4.443 18.53-21.715V63.264h34.587v117.97c0 35.783-20.996 52.07-51.645 52.07-10.992 0-20.148-2.257-27.704-6.057z" fill="#000" fill-rule="evenodd"/></svg>