<svg width="437" height="480" viewBox="0 0 437 480" xmlns="http://www.w3.org/2000/svg"><title>Unofficial_JavaScript_logo_2 + Group</title><g fill="none" fill-rule="evenodd"><path d="M278.2 391.19c12.69 20.72 29.2 35.95 58.4 35.95 24.53 0 40.2-12.26 40.2-29.2 0-20.3-16.1-27.49-43.1-39.3l-14.8-6.35c-42.72-18.2-71.1-41-71.1-89.2 0-44.4 33.83-78.2 86.7-78.2 37.64 0 64.7 13.1 84.2 47.4l-46.1 29.6c-10.15-18.2-21.1-25.37-38.1-25.37-17.34 0-28.33 11-28.33 25.37 0 17.76 11 24.95 36.4 35.95l14.8 6.34c50.3 21.57 78.7 43.56 78.7 93 0 53.3-41.87 82.5-98.1 82.5-54.98 0-90.5-26.2-107.88-60.54l48.11-27.95zm-209.13 5.13c9.3 16.5 17.76 30.45 38.1 30.45 19.45 0 31.72-7.61 31.72-37.2v-201.3h59.2v202.1c0 61.3-35.94 89.2-88.4 89.2-47.4 0-74.85-24.53-88.81-54.075l48.19-29.175z" fill="#000"/><path d="M168.65 54.728c.138-1.243-.138-2.07-.828-2.623-.415-.138-.69-.276-1.242-.552-.83-.275-1.243-1.104-1.52-2.07-.138.966-.69 1.795-1.518 2.07-.552.276-.966.415-1.242.552-.69.553-1.104 1.38-.828 2.623 0 .552.276 1.242.552 1.656-.828-.414-1.794-.552-2.76-.414-.967.138-1.657.69-2.07 1.38-.415.69-.83 1.38-.967 1.656-.138.276-.553.415-1.243.553.69 0 1.105.136 1.243.55.137.276.69.83 1.38 1.657.69.69 1.656 1.105 2.898 1.105 1.38 0 2.07 1.38 1.933 4.28-.138 2.897-1.52 4.692-4.003 4.968-2.208.415-3.727-.69-4.417-3.175-.415.138-.69.276-1.104.276.276 1.795-.414 2.9-2.07 3.452-2.21.552-3.866-.138-4.97-1.933-.967-1.934-.967-3.038.275-3.728 1.104-.552 1.794-1.38 2.07-2.485.138-.966.276-1.656.276-2.07 0-.276.276-.828.83-1.104-.69.138-1.106.276-1.244.138-.414-.275-.966-.55-1.794-.965-.83-.414-1.657-.414-2.485-.138-.966.415-1.795 1.104-2.623 2.21.69-1.52.276-2.762-1.656-3.866-.415-.275-.966-.275-1.657 0-.828.277-1.52.415-2.07.14-.552-.14-.83-.14-1.104-.416 1.656 2.07 3.174 4.142 4.555 6.212.415-.275.69-.275 1.242 0 0 0 .138 0 .138.138.415.138.69.414.967.83v.274c.552-1.38 1.794-2.346 3.865-3.036-2.07.69-3.313 1.656-3.865 3.036.138.415.275.69.138 1.105 0 .275-.138.69-.276.828.138.553.276.967.552 1.657.137.276.275.552.414.966.138 0 .138.138.138.276 1.933 2.484 3.865 4.14 5.798 4.83h.83c2.483 0 4.14-.965 4.83-2.897 1.794 2.623 4.14 3.313 7.04 2.07 2.76-1.38 4.14-3.45 4.14-6.35V62.32c-.55 0-1.103-.138-1.518-.553-.414-.276-.552-.828-.552-1.242 0-.414.138-.83.414-1.104-.552-.275-1.242-.55-2.208-.69-1.104-.413-1.933-.275-2.623.277.69-.552 1.52-.69 2.623-.276.966.14 1.657.415 2.208.69 0-.137.138-.275.138-.414.276-.276.83-.552 1.38-.414v-5.108 5.108h.14c.413-.14.827.138 1.24.414.14.138.14.276.277.415.414-.275 1.104-.55 2.07-.69.966-.413 1.933-.275 2.623.277-.69-.552-1.657-.69-2.623-.276-.966.14-1.656.415-2.07.69.275.276.414.69.414 1.105 0 .415-.276.966-.69 1.242-.414.415-.828.553-1.242.553v6.074c.138 3.865 1.794 6.21 4.97 6.625 3.174.55 5.245-.14 6.21-2.21-.137 1.933 1.105 2.9 3.45 3.175h.69c3.04-.552 5.385-2.07 7.042-5.107 0-.138.138-.276.138-.414.138-.415.276-.69.414-.966l.415-.83c-.414-.136-.55-.55-.69-.965 0-.552 0-.966.276-1.38.138-.276.276-.415.415-.552-.55-1.242-1.794-2.208-3.864-2.898 2.07.69 3.313 1.656 3.865 2.9.14-.14.277-.14.415-.277.138-.138.276-.138.276-.138.415-.276.83-.276 1.243 0h.138c1.38-2.21 3.037-4.555 4.832-6.902-.138.276-.552.276-1.104.415-.552.276-1.242.138-2.07-.138-.69-.276-1.243-.276-1.657 0-1.794 1.104-2.346 2.347-1.518 3.865-.967-1.104-1.794-1.794-2.76-2.21-.968-.274-1.658-.274-2.486.14-.828.414-1.38.69-1.794.965-.14.14-.552 0-1.104-.138.552.276.69.828.69 1.104 0 .415.138 1.104.275 2.07.276 1.105.967 1.933 2.07 2.485 1.244.69 1.244 1.794.277 3.727-1.104 1.795-2.76 2.485-4.97 1.933-1.656-.553-2.346-1.657-2.208-3.45-.276 0-.69-.14-.828-.277-.83 2.484-2.347 3.59-4.694 3.175-2.346-.275-3.727-2.07-3.865-4.968-.138-2.9.414-4.28 1.794-4.28 1.38 0 2.346-.414 3.036-1.104.69-.828 1.104-1.38 1.38-1.656.138-.415.552-.552 1.104-.552-.552-.138-.966-.276-1.104-.553-.276-.276-.552-.966-.966-1.656-.552-.69-1.242-1.24-2.07-1.38-.967-.137-1.933 0-2.762.415.276-.415.414-1.105.552-1.657" fill="#FFD500"/><path d="M190.46 65.357c-.414-.276-.83-.276-1.242 0 0 0-.138 0-.276.138s-.276.138-.414.276c-.138.138-.276.276-.415.553-.275.414-.275.83-.275 1.38.138.414.275.83.69.966.414.137.69.137 1.242 0 .414-.138.69-.415.967-.967.137-.276.275-.69.275-.966.138-.138.138-.276.138-.414-.138-.415-.276-.69-.552-.966h-.138" fill="#FFD500"/><path fill="#FFD500" d="M188.528 68.67l-.415.828c.138-.276.277-.414.415-.83M177.208 65.633c-.552 0-.966.138-1.242.552-.276.276-.552.83-.552 1.242 0 .552.276.967.552 1.242l.276.275c.137.138.552.276.828.276h.138c.552 0 .966-.137 1.242-.552.415-.275.553-.69.553-1.242 0-.414-.138-.966-.553-1.242-.275-.413-.69-.55-1.242-.55M180.52 75.986h-.69c-2.345-.276-3.587-1.242-3.45-3.175-.966 2.072-3.036 2.762-6.21 2.21-3.176-.414-4.833-2.76-4.97-6.625 0 2.9-1.38 4.97-4.14 6.35-2.9 1.242-5.247.552-7.04-2.07-.69 1.932-2.348 2.898-4.832 2.898h-.83c-1.932-.69-3.864-2.347-5.797-4.832.83 1.796 1.658 3.452 2.21 5.247l.828 2.484h39.065c.138-.827.415-1.655.69-2.483.553-1.795 1.243-3.45 2.21-5.107-1.658 3.036-4.004 4.554-7.042 5.106"/><path d="M187.286 87.443c-.966-.414-1.657-1.104-1.933-1.794-.414-.69-.966-1.52-1.38-2.21h-37.408c-.69.83-1.104 1.794-1.52 3.037-.137.69 0 1.242.415 1.656.138.276.552.415.966.552.414.138 1.104.138 1.933 0 .55-.137 1.103-.275 1.656-.275.69-.138 1.38-.276 2.208-.552.553-.138 1.105-.276 1.657-.553 1.105-.275 2.072-.552 3.176-.275.69.138 1.38.414 2.07.828.69.552 1.795.828 2.9 1.242 1.104.138 2.346.414 3.727.414-1.38 0-2.623-.276-3.728-.414-.828 2.76-2.208 4.555-4.003 5.52-1.794.69-3.59.69-5.245-.55-1.657-1.106-2.623-2.9-2.76-5.66-.554 0-1.105.137-1.658.274-.83.138-1.52.138-1.934 0 2.623 2.624 4.555 6.488 5.797 11.458 1.105 4.83 3.037 8.696 5.52 11.87 0 3.038-1.517 5.937-4.554 8.697.137 2.07-1.243 4.14-4.142 6.21 2.208 1.933 4.417 1.933 6.488 0l3.865-2.898 2.348 7.178c4.14-1.933 6.625-5.108 7.316-9.25 1.242 4.142 3.727 7.04 7.454 8.835-.414-3.588.415-6.487 2.485-8.696l3.45 4.83c2.485 1.795 4.97 1.795 7.455 0-5.52-1.518-8.144-4.97-8.144-10.076 1.932 1.242 3.865 1.242 5.936 0-4.003-2.76-6.35-6.902-7.18-12.423.416.415.83.967 1.658 1.933.69.69 1.52 1.242 2.485 1.38 1.104.276 2.485.138 4.417-.415-1.242-.275-2.347-.828-3.037-1.518-.69-.69-.828-1.52-.276-2.76.414-1.244.83-2.21 1.242-3.176.275-.83.55-1.794.55-2.76.14-1.105 0-2.072-.413-3.038-.276-1.105-.966-1.657-1.795-1.933-1.242 0-2.07-.276-2.898-.828-.553-.415-.966-.83-1.243-1.38.277.552.69.966 1.244 1.38.828.552 1.656.828 2.898.828 1.105 0 2.21-.138 3.313-.138 1.242 0 2.208-.138 3.037-.553.966-.552 1.52-1.242 1.657-2.208.137-.69.274-1.52.137-2.07h-.415c-.552.69-1.52 1.104-2.76 1.242-1.242.004-2.346-.41-3.036-.963" fill="#000"/><path d="M183.972 83.44h.553c-.138-1.657-.138-3.313.138-4.97h-39.065c.414 1.657.552 3.313.276 4.97h38.098" fill="#FFD500"/><path d="M182.454 126.922l-3.45-4.832c-2.072 2.21-2.9 5.108-2.486 8.696-3.727-1.794-6.21-4.693-7.454-8.834-.69 4.14-3.175 7.316-7.316 9.25l-2.347-7.18-3.864 2.9c-1.243 5.107-4.694 8.696-10.077 10.767 2.346 2.484 4.83 3.036 7.177 1.932l4.003-2.208c-.276 4.14.83 8.42 2.9 12.7 5.796-4.004 9.248-8.145 10.076-12.424.967 6.35 4.14 10.353 9.8 12.148 1.795-4.14 2.762-8.42 2.9-13.252l3.45 3.037c2.9 1.518 5.937 1.38 9.25-.276-6.488-2.348-10.63-6.35-12.562-12.425M168.098 163.78c-.138.55-.275 1.103-.552 1.793-.414.966-1.104 1.794-1.933 2.76l2.76 4.004-.275-8.558M177.623 199.67l-.83-1.244c-.827 6.074-3.45 11.458-7.453 16.29v3.864c1.518 9.11 3.727 15.046 6.764 17.807l.138-.137c3.588-3.45 6.073-8.283 7.454-14.77.276-1.52.69-3.176.966-4.833.69 8.696 3.037 15.323 6.764 19.74 2.623-1.52 4.693-3.866 6.35-7.317l-10.215-14.908-.275-.415c-.69 1.105-1.52 2.07-2.208 2.9-3.866-4.556-6.35-10.216-7.454-16.842v20.016-20.151" fill="#000"/><path d="M177.623 199.67v.137c1.104 6.626 3.588 12.286 7.454 16.84.69-.827 1.52-1.793 2.208-2.898l-.276-.276-9.387-13.805M168.788 215.267l.553-.552c4.004-4.832 6.626-10.215 7.455-16.29l-8.282-12.146v12.7-12.7l-1.795-2.624v.138c-1.104 4.97-3.313 8.696-6.487 11.32v.69c.415 7.04 3.038 13.39 7.73 18.91.138.14.552.277.828.553" fill="#000"/><path d="M169.34 214.715l-.552.552v23.743-23.743c-.276-.276-.69-.414-.828-.552v3.865c-1.52 9.11-3.727 15.046-6.764 17.807 0-.137-.138-.137-.138-.137-3.313-3.175-5.66-7.73-7.178-13.39v16.15-16.564c-.552-1.795-.966-3.727-1.242-5.798-.69 8.696-3.037 15.323-6.764 19.74.414 2.208.828 4.14 1.38 5.935 1.38 4.97 3.037 8.42 5.107 10.49.416.415.968.83 1.38 1.105.277.276.553.414.83.552 3.45-3.175 5.52-9.11 6.35-17.67v-.55c0 .136 0 .274.138.55.828 6.626 3.037 12.425 6.488 17.256l.138.138s.138.276.276.414c.138.276.414.552.552.69.276-.138.69-.414.83-.69l.136-.138c0-.138.138-.276.276-.414 3.45-4.83 5.66-10.63 6.488-17.255.137-.275.137-.414.137-.55v.55c.69 8.56 2.898 14.495 6.35 17.67.275-.138.55-.276.828-.552.414-.276.966-.69 1.38-1.104 2.07-2.07 3.728-5.52 5.108-10.49.552-1.796.966-3.728 1.38-5.937-3.727-4.417-6.074-11.043-6.764-19.74-.276 1.658-.69 3.314-.966 4.833v17.53-17.53c-1.38 6.488-3.865 11.32-7.454 14.77l-.138.138c-3.037-2.76-5.246-8.696-6.764-17.807v-3.865" fill="#000"/><path d="M167.96 218.58v-3.865c-4.693-5.522-7.316-11.872-7.73-18.912v23.19V195.114c-.69 8.834-3.313 16.013-8.007 21.534-4.693-5.383-7.73-12.837-8.973-22.5-.828 8.144-.828 16.29 0 24.433-.828-8.144-.828-16.29 0-24.433v-.415c-.275 2.21-.414 4.28-.828 6.35-1.104 6.625-3.175 11.733-6.074 15.322.276 2.484.553 4.693.967 6.764 1.52 7.178 4.417 11.872 8.56 14.218 3.726-4.417 6.073-11.043 6.763-19.74.276 2.072.69 4.004 1.242 5.8v.413c1.52 5.66 3.865 10.214 7.178 13.39 0 0 .138 0 .138.136 3.037-2.76 5.245-8.696 6.764-17.806" fill="#000"/><path d="M187.562 214.163l-.552-.69.276.275.276.415M289.02 327.355h-.138c.276-3.728-1.518-5.107-5.107-4.417 0 .552 0 1.104.138 1.657-.138.828-.138 1.794-.138 2.76 0 2.072.138 4.418.275 6.903v.414c.138 2.347-.137 4.28-1.104 5.383-.414.552-.966.966-1.52 1.242.14.83.416 1.657.553 2.485v1.52c-1.243-.968-2.485-1.796-3.866-2.072.276.276.414.69.69 1.242.138.69.276 1.38.276 1.933v.414c-.138 0-.276.137-.415.275.415 0 .83.138 1.242.138.138 0 .276 0 .276.138 3.037.83 5.245.415 6.902-1.242v-.138l.138-.138c1.52-1.933 2.21-4.556 1.933-8.007 0-1.242-.138-2.484-.138-3.588 0-1.795-.138-3.313-.138-4.694.002-.69.14-1.518.14-2.208" fill="#FFD500"/><path d="M294.403 334.67v-.413c.553-3.59-1.242-5.107-5.52-4.694 0 1.38.137 2.9.137 4.694 0 1.104.138 2.346.138 3.588.276 3.45-.414 6.074-1.933 8.007l-.138.138v.138c-1.657 1.657-3.865 2.07-6.902 1.243-.276.415-.552.83-.552 1.38.138-.275.275-.414.275-.552.83-.137 1.52.138 2.21.83.965.69 1.656 1.518 1.93 2.622.277.69.416 1.38.416 1.933v.137c1.52.415 3.037 0 4.417-1.38.554-.552.967-1.104 1.38-1.656 1.105-1.657 1.934-3.59 2.21-5.798.553-3.037 1.106-6.35 1.933-10.215" fill="#FFD500"/><path d="M280.186 347.37c0-.137-.138-.137-.276-.137-.414 0-.828-.138-1.242-.138 0 0-.138.138-.276.138l1.104 1.52h.138c0-.555.275-.968.552-1.382M281.98 343.782c-.138-.83-.414-1.657-.552-2.485-1.104-2.898-3.59-4.417-7.316-4.417-1.242.276-2.07.83-2.76 1.794-.553.966-.69 1.932-.277 3.037.138.967.83 1.52 1.795 1.52.276-.138.69-.138 1.104-.276 1.52-.138 2.9-.138 4.142.276 1.38.276 2.623 1.104 3.865 2.07v-1.518" fill="#FFD500"/><path d="M282.118 349.027c-.69-.69-1.38-.966-2.21-.83 0 .14-.137.277-.274.554h-.138c-2.21 2.9-4.832 3.866-8.145 2.762 3.59 5.245 7.593 6.35 12.148 3.175.276-.276.552-.552.828-.69 0-.138 0-.276.138-.276v-.136c0-.553-.138-1.243-.415-1.933-.275-1.105-.966-1.933-1.932-2.623" fill="#FFD500"/><path d="M235.046 292.845c0-2.623.553-4.83 1.795-6.488l-1.103-1.656c-4.28 0-8.696-3.036-12.976-9.386 3.176 8.56 3.73 15.46 1.796 20.706-1.38-.138-2.623-.276-3.866-.552.69 4.832 2.76 8.282 6.35 10.215 0 .83 1.38 1.52 3.728 2.07 2.484.553 4.003.69 4.555.415 2.623.138 5.246-.828 7.87-2.76-5.523-1.658-8.284-5.8-8.147-12.563M196.81 244.117c2.346-2.07 5.246-2.484 8.42-1.104.276.275.69.414.966.552 1.104.69 1.795 1.794 2.208 3.59.552 1.655.138 3.726-.966 5.796 1.38-1.38 2.76-2.622 4.003-3.726l-13.666-20.154c-1.656 3.45-3.727 5.798-6.35 7.316-.414 2.21-.827 4.14-1.38 5.936-.552 5.797 2.072 9.387 7.73 11.043.415-.415.83-.69 1.243-.967-4.002-3.312-4.692-6.072-2.207-8.28M176.38 236.8h-.137c-.83 6.626-3.037 12.425-6.488 17.256 0 .138 0 .276.138.552 1.38 6.764 3.313 11.457 5.797 13.804 0 .138.138.276.276.276 0 0 .138 0 .138-.138 3.59-3.313 6.073-8.282 7.454-14.632-.276.276-.552.414-.83.552-3.45-3.175-5.658-9.11-6.348-17.67v18.912-18.91" fill="#000"/><path d="M169.34 254.608c-.137.276-.552.552-.828.69-.138-.138-.415-.414-.552-.69-.138-.138-.276-.414-.276-.414v15.322-15.322l-.138-.138c-.138.138-.138.276-.138.552-1.38 6.764-3.45 11.457-5.797 13.804h.14c1.103 7.178 3.45 12.147 6.9 14.77 3.452-2.623 5.798-7.59 7.04-14.77-2.483-2.347-4.416-7.04-5.796-13.804-.138-.276-.138-.414-.138-.552-.138.138-.276.276-.276.414-.002 0-.002 0-.14.138" fill="#000"/><path d="M184.938 252.814c-.414.414-.966.828-1.38 1.104-1.38 6.35-3.865 11.32-7.454 14.632 0 .138-.138.138-.138.138-.138 0-.276-.138-.276-.276 1.104 5.52 3.45 10.353 7.455 14.77 4.28-2.484 6.902-7.454 7.868-14.77-3.037-3.59-4.97-8.834-6.075-15.598" fill="#000"/><path d="M190.046 242.323c-1.38 4.97-3.037 8.42-5.108 10.49 1.104 6.765 3.038 12.01 6.074 15.6.83-.415 1.52-.83 2.07-1.38-.55-1.243-.69-2.9 0-4.833 1.243-4.14 2.762-7.04 4.694-8.834-5.66-1.657-8.282-5.246-7.73-11.043" fill="#000"/><path d="M193.083 267.032c-.552.552-1.242.967-2.07 1.38-.967 7.316-3.59 12.285-7.87 14.77-1.38 3.038-2.898 5.937-4.693 8.697-1.518 2.622-3.45 5.106-5.383 7.453-1.933-2.346-3.45-7.868-4.417-16.15-.966 8.282-2.485 13.804-4.417 16.15-2.07-2.346-3.865-4.83-5.52-7.454-1.658-2.762-3.176-5.66-4.556-8.697-4.14-2.485-6.764-7.455-7.868-14.77-.69-.415-1.52-.83-2.072-1.38-.83 1.932-2.76 3.174-5.798 4.14-4.417.967-9.11-1.657-14.08-8.144-5.108-6.49-10.768-6.35-17.255.413-3.728 3.866-5.52 8.145-5.383 12.838-.138 3.59-2.07 5.798-5.936 6.488.69.415 1.52.69 2.07 1.242 5.66 2.21 11.182-.69 16.84-8.696-3.312 8.56-3.865 15.46-1.794 20.706 1.243-.138 2.623-.276 3.727-.552 5.382-1.242 8.28-4.417 8.972-9.387-.69 7.317.966 12.977 5.245 17.118.553.414 1.105.69 1.52.966 2.622 1.38 5.107 1.52 7.73.276-2.9-5.246-2.624-10.077.69-14.356 3.45-4.417 7.73-5.246 12.975-2.623 2.347 1.244 3.866 2.624 4.832 4.418.828 1.794 1.104 3.865.69 6.21 1.795 9.802 5.108 17.946 9.8 24.572 4.418-6.487 7.316-14.77 8.973-24.984-.414-2.07-.138-4.14.69-5.798.966-1.794 2.484-3.175 4.832-4.417 5.244-2.622 9.523-1.793 12.974 2.624 3.313 4.28 3.59 9.11.83 14.356 2.483 1.242 4.968 1.104 7.59-.276.415-.276.967-.552 1.52-.966 4.28-4.14 6.073-9.8 5.245-17.117.69 4.97 3.726 8.146 8.97 9.388 1.244.276 2.486.414 3.867.552 1.933-5.245 1.38-12.147-1.795-20.706 4.28 6.35 8.697 9.387 12.976 9.387l-17.67-25.812c-1.793.69-3.45 2.07-5.106 4.14-4.97 6.488-9.663 9.112-13.94 8.145-3.178-.966-5.11-2.21-5.94-4.14" fill="#000"/><path d="M178.45 291.88c1.796-2.762 3.314-5.66 4.695-8.697-4.004-4.417-6.35-9.25-7.455-14.77-1.242 7.177-3.588 12.146-7.04 14.77-3.45-2.624-5.798-7.592-6.902-14.77-1.243 5.52-3.728 10.352-7.592 14.77 1.38 3.037 2.898 5.936 4.555 8.696 1.658 2.622 3.452 5.106 5.522 7.453 1.933-2.346 3.45-7.868 4.417-16.15.965 8.282 2.483 13.804 4.416 16.15 1.934-2.347 3.867-4.832 5.385-7.454M220.69 295.468c-5.245-1.242-8.282-4.417-8.972-9.387.828 7.317-.966 12.977-5.245 17.118-.552.414-1.105.69-1.52.966 2.21 3.728 1.52 8.007-1.932 12.838 1.38.414 2.485.552 3.176.552 0-.138.138-.138.276 0 4.417-.276 8.42-1.52 12.147-3.728.137-.138.275-.275.414-.275.414-.275.69-.414.966-.552.138-.276.415-.276.552-.414 0-.138.138-.138.138-.138.276-.275.552-.552.967-.69 2.07-1.794 3.865-3.727 5.383-6.074-3.588-1.932-5.66-5.383-6.35-10.214" fill="#000"/><path d="M195.153 305.96c-8.972 2.897-14.494 1.24-16.426-5.11-.414-1.103-.69-2.207-.69-3.173-1.657 10.215-4.555 18.497-8.972 24.984v55.493c.276-.966.414-2.07.414-3.174.275 5.52 2.898 10.076 8.144 13.526-5.246-3.45-7.87-8.006-8.145-13.527 0 1.103-.138 2.207-.415 3.173v17.67-17.67c-.967 4.142-3.45 7.592-7.73 10.353 4.28-2.76 6.764-6.21 7.73-10.353v-51.488c-1.657 16.288-6.764 26.503-15.46 30.368-2.485 1.794-5.108 3.313-8.007 4.417-.967 3.037-5.66 6.35-13.942 9.94 8.282-3.59 12.975-6.903 13.942-9.94-5.245 2.07-10.905 3.037-16.98 2.76-7.868-.137-14.08 1.934-18.497 6.075 4.418-4.14 10.63-6.212 18.5-6.074 6.073.277 11.732-.69 16.978-2.76 2.9-1.104 5.52-2.623 8.006-4.417-10.767 3.037-17.117 1.518-18.91-4.417 1.793 5.936 8.143 7.454 18.91 4.417 8.697-3.865 13.804-14.08 15.46-30.368v-4.004c-4.692-6.624-8.005-14.77-9.8-24.57-.138.967-.275 1.794-.69 2.76-1.933 6.35-7.454 8.007-16.29 5.11 2.21 12.422 8.422 18.082 18.36 16.978l-4.28 24.02c-.827 4.416-4.416 5.797-10.627 4.002-6.35-1.656-6.626-5.66-.83-11.87-9.523-.968-14.907 3.036-16.563 11.594-.138.275-.138.552-.276.828-3.727-.276-7.178 1.242-10.077 4.555-3.726 4.003-7.177 6.074-10.214 6.35-3.313.276-4.003-1.932-2.07-6.626-4.28 2.07-6.626 4.418-7.04 7.04-.414 1.934.276 4.004 1.932 6.35-4.28 2.348-6.625 5.108-7.177 8.145-1.104 4.97 3.59 10.49 14.08 16.564-1.655-9.25 0-14.77 4.97-16.704 2.347-.966 4.832-.414 7.178 1.38 2.898 3.037 4.003 6.488 3.175 10.63.414-1.38 1.52-3.176 3.175-5.522 1.52-2.485 3.865-4.003 6.626-4.693 2.76-.55 6.902-2.208 12.7-4.97 5.52-2.76 11.318-8.695 17.807-18.22 3.59 21.534-3.174 33.544-20.567 36.443 4.28 6.35 10.215 8.144 17.67 5.107-2.9 7.04-2.762 11.733.274 14.08 3.037 2.07 5.798 7.178 8.283 15.185 1.52-6.902 4.003-11.733 7.455-14.356 3.174-2.762 3.45-7.73.69-14.91 7.454 3.037 13.25 1.242 17.67-5.107-17.532-2.9-24.434-14.91-20.57-36.443 6.35 9.525 12.287 15.46 17.808 18.22 5.798 2.762 10.076 4.418 12.837 4.97 2.76.69 4.83 2.21 6.488 4.694 1.657 2.347 2.76 4.14 3.175 5.52-.69-4.14.415-7.59 3.313-10.628 2.346-1.794 4.693-2.346 7.178-1.38 4.83 1.933 6.488 7.455 4.83 16.703 10.354-6.074 15.186-11.596 14.22-16.565-.69-3.037-3.037-5.797-7.18-8.144 1.52-2.346 2.21-4.416 1.934-6.35-.552-2.622-2.9-4.97-7.04-7.04 1.795 4.695.966 6.903-2.07 6.627-3.175-.276-6.626-2.347-10.216-6.35-3.036-3.313-6.35-4.832-10.076-4.555v.138l-.138-.138h.138c-1.38-10.767-6.902-15.047-16.98-12.423 5.66 6.21 5.385 10.214-.827 11.87-6.35 1.795-9.94.415-10.77-4.003l-3.312-19.187-.69-4.832c9.938 1.104 16.15-4.556 18.495-16.98" fill="#000"/><path fill="#000" d="M209.234 351.512h-.138l.138.138v-.138"/><path d="M258.79 318.52l-.83-1.242.83 1.242M267.21 345.576h-.276l.276.276c3.313 4.003 7.04 4.417 11.18 1.38.14 0 .277-.138.277-.138.138-.138.276-.276.415-.276v-.414c0-.552-.138-1.242-.276-1.933-.276-.55-.414-.965-.69-1.24-1.243-.416-2.623-.416-4.142-.277-.552.83-1.38 1.52-2.484 2.07-1.243.415-2.624.69-4.28.553" fill="#FFD500"/><path d="M66.087 56.66l-3.036-6.073c-.552 3.037-.966 6.074-1.104 8.973l4.14-2.9M69.676 63.7l-7.454 5.108c1.242 10.768 5.66 21.396 12.976 32.164 3.45 6.625 6.764 11.87 10.077 16.012-3.313-8.006-4.555-14.77-4.14-20.153L72.99 81.785l8.144 15.047c.276-2.623.828-4.97 1.933-7.04L69.677 63.7" fill="#000"/><path d="M86.24 84.27c-1.103 1.793-2.207 3.588-3.173 5.52-1.105 2.07-1.657 4.417-1.933 7.04-.414 5.383.828 12.147 4.14 20.153.83 2.07 1.796 4.28 2.9 6.488 3.728-.137 6.902.415 9.8 1.52-.137-.138-.137-.276-.137-.276l-.138-.138-11.32-21.948 11.32 21.948c-1.795-3.727-1.795-7.868-.138-12.7-6.49-8.834-10.217-18.083-11.32-27.607" fill="#000"/><path d="M139.248 64.667c-.414.276-.552.552-.69.967 0 .138 0 .275.138.414 0 .415 0 .69.276 1.105.137.414.552.69.966.966.552.275.966.275 1.38 0 0-.14.138-.14.138-.277.138-.138.276-.553.276-.828.137-.415 0-.69-.138-1.105v-.275c-.276-.415-.552-.69-.967-.83 0-.137-.138-.137-.138-.137-.552-.277-.828-.277-1.242 0M139.386 88.685c-.552.553-.69 1.243-.69 2.347.966.552 1.794.414 2.76-.138.14-.276.415-.414.83-.414.413-.276 1.103-.276 1.793-.276.827.138 1.38.415 1.656.967 0 .14.138.276.138.69 0 .69-.415.967-1.38.69-.967-.137-1.657-.966-2.21-2.07-.414 0-.69.138-.827.414-.967.552-1.794.69-2.76.138-6.075 1.104-7.73 5.936-5.11 14.632 1.244-4.417 4.28-5.52 9.25-3.313 3.59-3.174 6.488-1.794 8.834 4.004.14.138.277.276.277.414.552 1.38.966 2.76 1.52 4.556v.275c.136.275.136.69.413 1.104-2.208 6.487-7.178 7.454-14.908 3.313 1.242 3.037 3.036 4.97 5.66 5.936 2.484.967 4.97.967 7.316-.138.414-.275.828-.828 1.242-1.104 3.037-2.76 4.555-5.66 4.555-8.695-2.484-3.175-4.417-7.04-5.52-11.87-1.243-4.97-3.175-8.835-5.798-11.46-.414-.136-.828-.274-.966-.55-1.38-.415-2.622-.553-3.588-.415-.968.137-1.796.413-2.486.965M166.717 59.42c-.137-.137-.137-.275-.276-.414-.413-.276-.827-.552-1.24-.414h-.14c-.55-.14-1.104.138-1.38.414 0 .138-.138.276-.138.415-.276.276-.414.69-.414 1.105 0 .415.138.966.552 1.242.414.415.966.553 1.52.553.413 0 .827-.138 1.24-.553.415-.276.69-.828.69-1.242.002-.413-.136-.828-.413-1.104M154.156 68.67c.414-.276.552-.69.552-1.243 0-.414-.138-.966-.552-1.242-.276-.414-.69-.552-1.243-.552-.552 0-.966.138-1.38.552-.276.276-.414.83-.414 1.242 0 .552.137.967.413 1.242.415.414.828.552 1.38.552.415 0 .69-.138 1.104-.276 0-.138.14-.138.14-.277" fill="#FFD500"/><path d="M141.457 67.842c0 .138-.138.138-.138.276.137.415.414.966.69 1.38-.277-.69-.415-1.104-.553-1.656M145.736 91.17c-.276-.552-.83-.83-1.657-.967-.69 0-1.38 0-1.795.276.552 1.103 1.242 1.932 2.21 2.07.965.275 1.38 0 1.38-.69 0-.414-.14-.55-.14-.69" fill="#FFD500"/><path d="M152.223 87.857c-.828.276-1.518.414-2.208.552.138 2.76 1.104 4.554 2.76 5.66 1.657 1.24 3.452 1.24 5.246.55 1.795-.965 3.176-2.76 4.004-5.52-1.104-.415-2.208-.69-2.9-1.242-.69-.415-1.38-.69-2.07-.828 0 .828 0 1.656-.275 2.623-.14.828-.967 1.52-2.21 1.657-1.38.274-2.21-.83-2.347-3.453" fill="#EF0000"/><path d="M156.78 89.652c.275-.967.275-1.794.275-2.623-1.104-.277-2.07 0-3.175.274-.552.276-1.104.415-1.657.553.138 2.623.967 3.727 2.347 3.45 1.243-.137 2.07-.827 2.21-1.655M27.988 83.44c-4.555-1.242-8.558-3.727-12.423-7.178-2.07 11.596-.828 23.743 3.59 36.443 6.487 12.423 13.25 22.638 20.43 30.782-1.38-2.208-2.624-4.693-3.452-7.315 3.865 1.104 7.73 1.794 11.595 2.07-8.144-7.04-14.908-17.117-20.292-30.093 5.384 12.975 12.148 23.052 20.292 30.092 4.693.414 9.25.138 13.942-.553-8.56-5.522-14.22-10.906-17.393-16.15-.138-.416-.276-.69-.415-.968-8.42-13.114-13.803-25.537-15.874-37.132M45.38 65.633l2.486 3.45 3.727-2.484c-.414-1.934-.69-4.142-.966-6.213.276 2.07.552 4.28.966 6.212l8.283-5.66c-4.693-11.18-6.625-22.915-5.66-35.338-12.01 9.938-16.84 21.948-14.632 36.442 0 .414.138.966.138 1.52.828-.14 1.52-.277 2.347 0 1.38.137 2.483.827 3.31 2.07" fill="#000"/><path d="M39.722 63.563c0-.552-.138-1.104-.138-1.52-4.003-2.483-7.04-6.35-9.387-11.87-3.174 11.042-3.865 22.085-2.208 33.267 2.07 11.595 7.454 24.02 15.874 37.132-1.104-2.208-1.933-4.417-2.208-6.487-.138-1.795-.138-3.45.275-5.108 3.452 2.76 7.18 4.97 10.906 6.902-6.902-7.87-12.147-18.498-16.012-32.026-.69-.414-1.243-.966-1.657-1.656-.828-1.242-1.104-2.485-.828-4.003.137-1.38.827-2.485 1.93-3.175l1.796-1.242-1.242-1.933h-.138c-.828-1.38-1.104-2.623-.828-4.14.276-1.38 1.104-2.486 2.208-3.314.552-.413 1.103-.69 1.656-.827" fill="#000"/><path d="M38.618 84.407c-.69-.138-1.38-.276-1.794-.553 3.865 13.528 9.11 24.157 16.012 32.025 3.313 1.518 6.764 2.898 10.215 3.726C55.045 108.01 48.97 96 44.69 83.44l-.55-.967-1.52 1.104h-.138c-1.104.83-2.484 1.105-3.864.83M52.283 75.572l2.21 3.313c.69 1.242.965 2.346.69 3.727-.14.966-.553 1.657-.967 2.347 2.76 2.483 5.52 4.83 8.282 7.04-3.865-4.557-6.902-10.216-8.973-17.256l-1.242.828" fill="#000"/><path d="M45.52 84.544l-.83-1.104c4.28 12.562 10.354 24.57 18.36 36.167 1.795.414 3.452.69 5.246.966-9.94-11.872-14.632-23.742-14.08-35.614-.414.413-.828.69-1.242 1.103-1.242.83-2.623 1.105-4.003.83-1.518-.277-2.622-1.105-3.45-2.21v-.14" fill="#000"/><path d="M41.93 108.977c-.414 1.657-.414 3.313-.275 5.108.275 2.07 1.104 4.28 2.208 6.487.138.276.276.552.415.967 3.174 5.244 8.834 10.627 17.393 16.15 4.694 3.727 9.387 5.797 14.22 6.35 1.793-1.795 3.45-3.176 5.382-4.142-4.97-2.347-10.077-6.074-15.046-11.043 4.97 4.97 10.077 8.697 15.046 11.043 1.104-.69 2.208-1.242 3.313-1.52-4.97-4.968-10.49-10.904-16.288-17.806-1.794-.275-3.45-.552-5.245-.966-3.45-.828-6.902-2.208-10.215-3.727-3.73-1.933-7.456-4.142-10.907-6.903M19.154 112.705c-5.107 0-9.248-1.52-12.285-4.417-.415 12.285 3.726 23.88 12.146 34.648 4.28 6.902 11.733 13.114 22.225 18.635 2.07.276 4.28.415 6.49.553 1.932 0 3.864-.138 5.796-.276-9.663-4.83-19.74-13.114-30.23-25.123 10.49 12.01 20.568 20.292 30.23 25.123 3.313-.275 6.626-.828 9.94-1.518-10.906-2.9-18.913-8.56-23.88-16.842-7.18-8.145-13.944-18.36-20.432-30.783" fill="#000"/><path d="M19.016 142.935c-4.97 1.38-9.938.275-14.908-3.313-.414 12.976 4.555 25.675 14.632 38.236 10.353 8.144 20.567 12.7 30.782 13.666 4.417-2.208 8.144-4.97 11.458-8.145-18.498-.967-31.75-7.593-40.17-20.017 8.42 12.424 21.673 19.05 40.17 20.016 1.242-1.38 2.484-2.9 3.588-4.28-14.77.415-24.57-5.797-29.54-18.635 2.07.553 4.14.83 6.212 1.105-10.49-5.52-17.945-11.733-22.224-18.635M47.728 138.242c-3.865-.276-7.73-.966-11.595-2.07.828 2.623 2.07 5.107 3.45 7.315 4.97 8.282 12.977 13.942 23.88 16.84 5.11 1.52 10.216 2.21 15.6 1.795.966-1.932 2.208-3.865 3.727-6.073-1.242-.277-2.347-1.38-3.59-3.176-6.486-.276-12.975-1.933-19.324-4.693 6.35 2.762 12.838 4.418 19.325 4.694-1.24-1.933-2.622-4.693-3.864-8.42.138-.138.276-.276.552-.415-4.832-.553-9.525-2.624-14.218-6.35-4.693.69-9.25.966-13.942.552" fill="#000"/><path d="M41.24 161.57c-2.07-.276-4.14-.552-6.212-1.105 4.97 12.838 14.77 19.05 29.54 18.635 8.56.138 17.393-1.104 26.09-3.865 0-.552.138-1.104.138-1.657-4.97.83-10.077-.276-15.46-3.588.414-.83.69-1.795 1.104-2.624-4.28 1.105-8.973 1.105-13.804 0 4.83 1.105 9.524 1.105 13.804 0 .69-1.656 1.52-3.45 2.623-5.245-5.383.415-10.49-.275-15.598-1.793-3.313.69-6.625 1.242-9.94 1.518-1.932.138-3.864.276-5.796.276-2.21-.136-4.42-.274-6.49-.55M49.522 191.524c-10.215-.966-20.43-5.522-30.782-13.666-6.488 2.347-12.424 2.347-17.393 0C3.83 191.8 12.527 203.67 27.16 213.61c15.046 3.59 29.954 3.59 44.862-.137 2.76-4.97 4.142-9.8 4.142-14.77-2.07.827-4.142 1.38-6.212 1.793-15.047 6.765-31.06 5.66-47.9-3.174 16.84 8.834 32.853 9.94 47.9 3.174-9.663 1.933-19.74.276-30.23-4.97 3.59-1.103 6.764-2.483 9.8-4.002" fill="#000"/><path d="M49.522 191.524c-3.037 1.52-6.212 2.9-9.8 4.003 10.49 5.245 20.567 6.902 30.23 4.97 2.07-.415 4.14-.967 6.212-1.795 6.21-3.313 11.043-7.87 14.908-13.666-.414-2.208-.552-4.417-.552-6.488-6.074 4.693-12.562 8.006-19.464 9.8 6.902-1.793 13.39-5.107 19.464-9.8 0-1.104 0-2.21.138-3.313-8.697 2.76-17.53 4.003-26.09 3.865-1.104 1.38-2.346 2.9-3.588 4.28-3.313 3.175-7.04 5.936-11.458 8.144M27.16 213.61c-3.727 2.76-9.11 4.14-16.012 3.866 6.35 10.628 15.875 16.564 28.85 17.807 17.255-4.14 30.782-9.8 40.998-16.84-4.003.69-8.282.965-12.7.69-9.11 3.865-19.74 5.245-31.887 4.003 12.147 1.242 22.775-.138 31.886-4.004 1.38-1.932 2.623-3.865 3.727-5.66-14.908 3.728-29.816 3.728-44.862.138" fill="#000"/><path d="M151.67 106.354c-.828-.552-1.655-.69-2.483-.966-.83-.138-1.657-.138-2.347-.276-.828 0-1.656.276-2.76.966-1.105.69-2.21 1.38-3.452 2.347-1.104.69-2.07 1.242-3.036 1.38-.83.138-1.657.138-2.21.138-.69-.138-1.103-.276-1.518-.415-.276-.138-.828-.414-1.52-.83-.55-.413-1.24-.965-1.793-1.93-.69-.967-.966-1.657-1.24-2.072-.69 2.21-.416 4.556.827 7.178.966 2.07 2.76 3.175 5.52 3.45 2.624.14 4.97-.69 6.627-2.484 1.794-1.932 3.727-3.036 5.66-3.588 1.933-.415 3.865.276 5.522 2.346v-.275c-.553-1.795-.967-3.175-1.52-4.556.002-.137-.136-.274-.275-.413" fill="#EF0000"/><path d="M113.71 145.558c1.52-1.38 2.485-3.037 2.623-4.832.276-2.07 0-4.003-.552-5.798-.69-1.933-1.655-3.45-3.036-4.417-1.38-1.103-2.623-2.207-3.727-3.588-.414-.276-.69-.69-.83-1.104L97.56 111.876c-1.657 4.832-1.657 8.973.137 12.7l.138.137s0 .138.138.276c-2.9-1.105-6.073-1.658-9.8-1.52-1.243.138-2.485.138-3.728.414-.138.966-.138 1.933-.138 2.76-.138 4.004.828 7.593 2.623 11.044-.69.138-1.52.415-2.347.69-1.104.276-2.208.828-3.313 1.52-1.933.965-3.59 2.346-5.383 4.14-.276.138-.414.276-.552.415 1.242 3.727 2.623 6.487 3.865 8.42 1.242 1.795 2.347 2.9 3.59 3.175-1.52 2.208-2.762 4.14-3.73 6.073-1.103 1.795-1.93 3.59-2.622 5.246-.414.83-.69 1.795-1.104 2.624 5.383 3.313 10.49 4.417 15.46 3.588 0 .553-.138 1.105-.138 1.657-.138 1.104-.138 2.21-.138 3.313 0 2.07.138 4.28.552 6.488.138 1.104.414 2.07.69 3.037 3.727 0 6.764-.414 9.11-1.242 2.76-.965 4.832-2.483 5.936-4.416.552 2.898 1.52 5.66 2.76 8.42.968 1.795 2.072 3.45 3.452 5.246.69-.276 1.38-.552 2.07-.83 3.313-1.518 6.074-4.554 8.42-9.248.552 3.866 1.38 7.18 2.347 10.216.552 1.932 1.656 3.727 3.313 5.52 4.555-3.865 7.04-10.352 7.73-19.325 1.38 5.797 3.45 9.663 6.35 11.32 3.45-2.21 6.074-8.697 7.73-19.464l-1.933-7.317c-.552.276-1.104.552-1.657.69-.69.276-1.38.276-2.07.276-2.347 3.864-3.314 7.867-2.762 11.87-.552-4.003.415-8.006 2.76-11.87-.69-.14-1.517-.277-2.207-.554-1.658.967-3.038.83-4.142-.137-1.38-1.106-3.175-1.934-5.52-2.486-2.21-.69-3.867-.828-4.695-.414-.966.275-1.656.552-2.347.966-.552.415-1.242.966-1.657 2.07-.553.967-1.38 2.07-2.485 3.45-.966 1.38-2.347 2.348-4.14 2.762-1.933.69-3.728.553-4.97-.69-1.242-.966-2.485-2.07-3.865-3.313-1.243-1.104-2.347-2.21-3.59-3.45-1.104-1.243-2.346-2.485-3.727-3.866-1.242-1.243-2.346-2.624-3.174-4.004-.968-2.07-.83-3.59.827-4.97 1.518-1.242 3.037-2.347 4.693-3.037 1.52-.69 3.036-1.243 4.83-1.933 1.662-.55 3.18-1.517 4.56-2.76" fill="#000"/><path d="M88.173 123.47c-1.104-2.207-2.07-4.416-2.9-6.487-3.312-4.142-6.624-9.387-10.076-16.012-4.28-2.622-8.42-5.66-12.7-8.972-2.76-2.208-5.52-4.556-8.282-7.04-.552 11.872 4.14 23.742 14.08 35.614 5.798 6.902 11.32 12.838 16.288 17.807.83-.277 1.657-.553 2.347-.69-1.794-3.452-2.76-7.04-2.623-11.044-3.175-2.07-6.212-6.487-9.25-12.976 3.038 6.488 6.075 10.905 9.25 12.976 0-.828 0-1.794.138-2.76 1.244-.277 2.486-.277 3.728-.415" fill="#000"/><path d="M62.498 92c4.28 3.312 8.42 6.35 12.7 8.972-7.316-10.768-11.733-21.396-12.976-32.164l-8.697 5.936c2.07 7.04 5.108 12.7 8.973 17.255M91.763 188.073c-.276-.966-.552-1.933-.69-3.037-3.865 5.797-8.696 10.353-14.908 13.666 0 4.97-1.38 9.8-4.142 14.77-1.104 1.795-2.347 3.728-3.727 5.66 4.417.276 8.696 0 12.7-.69 4.417-.966 8.558-2.623 12.424-4.97 3.174-1.932 6.21-4.417 8.972-7.454 4.003-5.107 6.35-10.214 7.178-15.184-1.242-2.76-2.21-5.52-2.76-8.42-1.105 1.933-3.176 3.45-5.937 4.417-.966 4.97-5.383 10.354-12.976 15.876 7.592-5.52 12.01-10.905 12.976-15.875-2.347.83-5.383 1.243-9.11 1.243" fill="#000"/><path d="M102.392 206.018c.69 2.9.966 5.798.828 8.973-.275 4.833-1.518 9.94-3.727 15.324 6.35-.414 11.595-2.485 15.736-6.35 3.312-2.898 5.797-6.902 7.59-11.733 2.348-5.382 3.314-10.766 3.038-16.01-.967-3.038-1.795-6.35-2.347-10.217-2.346 4.694-5.106 7.73-8.42 9.25 0 4.416-1.103 8.833-3.312 13.39 2.208-4.557 3.313-8.974 3.313-13.39-.69.275-1.38.55-2.07.828-1.38-1.794-2.483-3.45-3.45-5.245-.83 4.97-3.175 10.076-7.178 15.183" fill="#000"/><path d="M103.22 214.99c.137-3.173-.138-6.072-.83-8.972-2.76 3.037-5.797 5.522-8.97 7.455-6.766 9.386-18.5 17.53-35.064 24.432 16.564-6.902 28.298-15.046 35.063-24.432-3.867 2.346-8.008 4.003-12.425 4.97-10.215 7.04-23.743 12.7-40.998 16.84-.83 3.313-3.865 6.074-9.25 8.144 14.91 5.798 28.023 5.246 39.342-1.656 15.46-7.177 26.366-16.15 33.13-26.78M149.05 166.954l1.93 7.316v.276c1.658 9.25 4.694 16.15 9.25 20.567 3.174-2.623 5.383-6.35 6.487-11.32v-.137l-5.66-8.42v4.832-4.832l-8.558-12.423-3.45 4.14" fill="#000"/><path d="M150.98 174.546v-.276c-1.655 10.767-4.278 17.255-7.73 19.463v.415c1.244 9.663 4.28 17.117 8.974 22.5 4.694-5.52 7.316-12.7 8.007-21.534-4.556-4.418-7.592-11.32-9.25-20.568v21.81-21.81M143.113 167.367c.69.276 1.518.415 2.208.553.69 0 1.38 0 2.072-.276.552-.138 1.104-.414 1.657-.69l3.45-4.14-4.97-7.317c-2.898 4.693-6.625 7.178-11.042 7.04 2.346 2.484 4.554 4.14 6.625 4.83M129.17 201.74c-1.655-1.795-2.76-3.59-3.312-5.52.275 5.244-.69 10.627-3.037 16.01.83.83 1.38 1.658 2.07 2.625 1.658 2.346 2.9 4.83 4.004 7.454.828 2.07 1.38 4.14 1.795 6.35.965-.69 1.793-1.38 2.483-2.072 1.52-1.52 2.9-2.9 4.14-4.417-.413-2.07-.69-4.278-.966-6.763-3.725-2.348-6.21-6.904-7.176-13.667" fill="#000"/><path d="M122.82 212.23c-1.793 4.832-4.278 8.835-7.59 11.733-1.38 6.902-4.97 13.667-11.044 20.568 2.208 3.314 2.208 6.765 0 10.078 6.764.138 12.423-3.175 16.703-9.525 4.83-7.73 7.453-15.322 8.005-22.776-1.104-2.623-2.347-5.107-4.003-7.454-1.38 9.248-5.107 18.635-11.043 28.02 5.935-9.385 9.662-18.772 11.042-28.02-.69-.966-1.243-1.794-2.07-2.623" fill="#000"/><path d="M137.315 222.17c-1.242 1.518-2.623 2.898-4.14 4.416-.69.69-1.52 1.38-2.485 2.07-.415-2.208-.967-4.278-1.795-6.35-.552 7.455-3.175 15.047-8.006 22.777 2.345 1.794 5.383 4.417 9.11 7.868-1.243-2.07-1.657-4.14-1.104-5.796.415-1.795 1.242-2.9 2.208-3.59.414-.137.69-.275.967-.55 3.175-1.38 6.074-.968 8.56 1.103 2.346 2.208 1.656 4.97-2.347 8.282.414.275.828.55 1.242.966 5.66-1.657 8.283-5.246 7.73-11.043-.553-1.795-.966-3.727-1.38-5.936-4.142-2.346-7.04-7.04-8.56-14.218M129.17 201.74c.967 6.764 3.452 11.32 7.18 13.666 2.898-3.59 4.97-8.697 6.073-15.322.414-2.07.552-4.14.828-6.35-2.897-1.656-4.968-5.52-6.348-11.32v17.256-17.255c-.69 8.972-3.176 15.46-7.73 19.325M160.23 195.113v.69-.69M161.058 236.8h-.138v16.98-16.98c-.828 8.56-2.9 14.495-6.35 17.67-.276-.138-.552-.276-.83-.552 1.52 6.35 4.004 11.32 7.455 14.632 0 .138 0 .138.138.138s.276-.138.276-.276c2.345-2.347 4.416-7.04 5.796-13.804 0-.276 0-.414.138-.552-3.45-4.83-5.658-10.63-6.486-17.255" fill="#000"/><path d="M153.742 253.918c-.414-.276-.966-.69-1.38-1.104-.966 6.764-3.036 12.01-6.073 15.598 1.103 7.316 3.726 12.285 7.867 14.77 3.865-4.416 6.35-9.248 7.592-14.77h-.14c0 .138-.137.276-.275.276s-.138 0-.138-.138c-3.452-3.313-5.937-8.282-7.455-14.632" fill="#000"/><path d="M152.36 252.814c-2.07-2.07-3.726-5.52-5.106-10.49.552 5.796-2.07 9.386-7.73 11.042 1.933 1.794 3.45 4.693 4.832 8.834.552 1.933.414 3.59-.138 4.832.552.552 1.38.967 2.07 1.38 3.037-3.59 5.108-8.834 6.073-15.598M116.61 295.468c-1.105.276-2.485.414-3.728.552-2.07-5.245-1.518-12.147 1.795-20.706-5.66 8.006-11.182 10.905-16.84 8.696 3.036 1.933 4.416 4.694 4.555 8.835 0 6.764-2.76 10.905-8.282 12.56 2.623 1.934 5.245 2.9 7.868 2.762.552.276 2.07.138 4.556-.414 2.347-.552 3.727-1.242 3.865-2.07 3.587-1.933 5.658-5.384 6.21-10.215" fill="#000"/><path d="M125.582 286.08c-.69 4.97-3.59 8.146-8.973 9.388-.553 4.832-2.624 8.282-6.212 10.215 1.38 2.347 3.174 4.28 5.383 6.074.277.138.553.415.83.69.137 0 .137 0 .275.138h-.138c4.28 3.037 8.973 4.693 14.08 4.97.138-.138.276-.138.415 0 .552 0 1.656-.138 3.175-.552-3.59-4.83-4.28-9.11-2.07-12.838-.415-.276-.967-.552-1.52-.966-4.28-4.143-5.935-9.803-5.245-17.12M86.517 245.912c6.764-5.108 11.043-10.353 12.976-15.6 2.21-5.383 3.45-10.49 3.727-15.322-6.764 10.63-17.668 19.602-33.13 26.78 2.762 4.83 2.762 9.663 0 14.494 13.667-.138 25.124-4.004 34.097-11.733 6.074-6.9 9.663-13.666 11.043-20.567-4.14 3.865-9.386 5.936-15.736 6.35-1.933 5.246-6.213 10.49-12.977 15.6" fill="#000"/><path d="M110.398 305.683c-.138.83-1.52 1.52-3.865 2.07-2.485.553-4.003.69-4.556.415-5.383 6.626-11.595 11.043-18.497 13.39-1.657.552-3.45.966-5.107 1.242-7.178 1.38-11.87 3.175-14.356 5.383h-3.313c-1.242.138-2.347 0-3.45 0-1.105-.137-2.21-.275-3.314-.137-1.104 0-2.07.275-2.76.966-.968.69-1.52 1.657-1.52 2.76v.553c.966-.275 1.932.138 2.623.967.83.966 1.104 2.07 1.104 3.174 0 .69 0 1.38-.276 1.795.967.415 2.07.553 3.314.277.415-.276.83-.552 1.242-.966.415-.828 1.243-1.518 2.21-1.932.827-.553 1.93-.828 3.174-.69.275 0 .69 0 1.104.137.138-.552.138-.966 0-1.38.138.415.138.83 0 1.38 0 .553-.276 1.105-.69 1.795-.414.966-1.104 1.794-1.932 2.484-.83.69-1.933 1.242-2.9 1.657-1.103.415-1.932.967-2.622 1.657-.83.83-1.105 1.795-1.242 3.037 0 .414.137.69.275.967.69-.828 1.657-1.104 2.9-1.104 1.24.138 2.346.276 3.312.552 1.104.415 1.52 1.38 1.52 2.76-.14.277-.14.554-.14.83 1.243 0 2.21 0 3.314-.276 1.242-.553 2.07-1.243 2.484-1.933.552-.967.966-2.072.828-3.314-.138-1.104-.276-2.346-.276-3.45 0-1.106.276-2.21.967-3.176.414-.69 1.104-1.242 1.794-1.657.552.552 1.242 1.38 1.794 2.485.69 1.104.968 2.208.83 3.313 0 1.105-.276 2.072-.966 2.9-.69.828-1.243 1.656-1.795 2.623-.553.83-.83 1.794-.69 2.9-.14 1.103.414 1.932 1.518 2.483.414.276.552.276.69.138.138-.138.276-.138.414-.276.415-.275.967-.552 1.795-.69 1.104-.276 2.21-.138 3.313.415.966.275 1.38.69 1.794 1.38.83-.69 1.38-1.38 1.933-2.21.138-.137.276-.414.276-.69.276-.966.276-2.07.415-3.174 0-1.105-.276-2.21-.69-3.176-.415-.966-.828-2.07-1.38-3.037-.69-1.104-.553-2.07.414-2.898.828-.69 1.794-.967 3.037-1.105 1.103 0 2.207 0 3.45.276.828.14 1.656.553 2.347 1.105l.414.415c.69.828 1.52 1.242 2.762 1.38h2.484c.138 0 .414 0 .552-.138.276 0 .415-.138.69-.276.69-.276 1.104-.966 1.52-1.794-.968-.138-1.658-.552-1.795-1.52-.415-1.24-.276-2.207.276-3.036.69-.966 1.656-1.656 2.76-1.932 0-.276-.276-.414-.552-.552-.69-.69-1.657-1.104-2.9-1.242-1.38 0-2.345.414-3.173 1.104-.69.69-1.52 1.105-2.347 1.105-.276-.14-.414-.416-.69-.554-3.45-2.898-2.21-5.383 4.14-7.454.69-.138 1.38-.414 2.07-.69 6.075-2.347 12.84-5.936 20.293-10.905 0 0 0-.138-.137-.138-.276-.276-.552-.553-.828-.69-2.213-1.798-4.007-3.73-5.387-6.077" fill="#FFD500"/><path d="M61.256 346.128c-.966-.276-2.07-.414-3.313-.552-1.242 0-2.208.276-2.9 1.105-2.622 4.418-1.655 8.697 2.9 12.838-1.242-3.865.276-7.178 4.693-9.8 0-.276 0-.553.138-.83 0-1.38-.414-2.346-1.518-2.76M80.443 353.583c-.414-.69-.828-1.105-1.794-1.38-1.105-.553-2.21-.69-3.314-.415-.828.138-1.38.415-1.795.69-.136.138-.274.138-.413.276-.83 6.074 1.932 9.525 8.696 9.938-2.76-2.346-3.174-5.383-1.38-9.11M107.775 340.47c0-5.66-2.623-8.56-7.868-8.698-1.104.276-2.07.966-2.76 1.932-.553.83-.69 1.795-.277 3.037.138.968.828 1.38 1.794 1.52 3.59-.967 6.626-.277 9.11 2.21M116.61 312.446c.137 0 .137.138.137.138h.138c-.137-.138-.137-.138-.276-.138M53.388 336.465c0-1.104-.276-2.208-1.104-3.174-.69-.828-1.656-1.24-2.623-.966-5.244 1.52-6.9 5.384-5.244 11.872 1.38-4.832 4.278-6.764 8.696-5.936.276-.415.276-1.105.276-1.795" fill="#FFD500"/><path d="M283.223 25.602c.828 14.08-1.657 27.47-7.87 40.03-.69 11.872-5.244 23.605-13.25 35.34 4.28-2.624 8.56-5.66 12.7-8.974 6.35-7.178 10.353-17.808 11.872-31.61-1.52 13.803-5.52 24.432-11.872 31.61 2.76-2.208 5.52-4.556 8.42-7.04.414 11.872-4.28 23.742-14.08 35.614 1.657-.275 3.45-.552 5.107-.966 12.424-17.808 20.292-36.995 23.604-57.563 1.933-15.735-2.898-27.883-14.63-36.44M321.735 76.262c-3.727 3.45-7.868 5.936-12.285 7.178-2.21 11.595-7.455 24.02-16.013 37.132-.138.276-.276.552-.415.967-3.175 5.244-8.834 10.627-17.393 16.15 4.692.69 9.386.966 13.94.552 8.283-7.04 14.91-17.117 20.292-30.093-5.383 12.975-12.01 23.052-20.292 30.092 3.866-.276 7.73-.966 11.596-2.07-.83 2.623-2.07 5.107-3.45 7.315 7.177-8.144 13.94-18.36 20.43-30.782 4.418-12.7 5.66-24.848 3.59-36.443" fill="#000"/><path d="M309.45 83.44c1.518-11.18.69-22.224-2.347-33.268-2.347 5.52-5.383 9.387-9.25 11.872-3.312 20.568-11.18 39.755-23.603 57.563 3.45-.828 6.902-2.208 10.215-3.727 6.902-7.87 12.147-18.497 16.15-32.025-4.003 13.528-9.25 24.157-16.15 32.025 3.727-1.933 7.454-4.142 10.905-6.902.414 1.657.414 3.313.276 5.108-.276 2.07-.966 4.28-2.208 6.487 8.558-13.115 13.803-25.538 16.012-37.133M274.25 50.587L254.234 89.79c1.104 2.07 1.794 4.417 1.933 7.04l8.282-15.047-8.283 15.047c.552 5.383-.83 12.147-4.14 20.153 3.312-4.142 6.624-9.387 10.076-16.012 8.006-11.732 12.562-23.466 13.25-35.337.277-4.97 0-9.94-1.103-15.046" fill="#000"/><path d="M254.234 89.79c-.966-1.933-2.07-3.728-3.175-5.52-1.105 9.523-4.832 18.772-11.32 27.606 1.656 4.832 1.656 8.973-.138 12.7l11.32-21.95-11.32 21.95v.137c-.138 0-.138.138-.138.276 2.76-1.105 5.936-1.658 9.8-1.52.967-2.208 1.933-4.417 2.762-6.488 3.313-8.006 4.693-14.77 4.14-20.153-.137-2.623-.828-4.97-1.932-7.04" fill="#000"/><path d="M262.103 100.97c-3.45 6.626-6.764 11.872-10.077 16.013-.83 2.07-1.795 4.28-2.76 6.488 1.103.14 2.345.14 3.588.415.138.966.138 1.933.138 2.76 3.175-2.07 6.212-6.486 9.25-12.975-3.038 6.488-6.075 10.905-9.25 12.976.138 4.003-.828 7.592-2.623 11.043.69.137 1.518.414 2.346.69 5.107-4.97 10.49-10.906 16.427-17.808 9.8-11.872 14.494-23.742 14.08-35.614-2.9 2.484-5.66 4.832-8.42 7.04-4.142 3.314-8.42 6.35-12.7 8.973" fill="#000"/><path d="M274.25 119.606c-1.657.414-3.45.69-5.107.966-5.936 6.902-11.32 12.838-16.427 17.807 1.104.275 2.21.827 3.313 1.518 5.107-2.347 10.076-6.074 15.045-11.043-4.97 4.97-9.938 8.697-15.046 11.043 1.793.966 3.588 2.347 5.382 4.14 4.832-.55 9.524-2.622 14.218-6.35 8.558-5.52 14.218-10.904 17.393-16.15.138-.414.276-.69.415-.966 1.242-2.208 1.932-4.417 2.208-6.487.138-1.795.138-3.45-.276-5.108-3.45 2.76-7.178 4.97-10.905 6.902-3.313 1.518-6.764 2.898-10.215 3.726" fill="#000"/><path d="M239.602 124.575c1.794-3.727 1.794-7.868.138-12.7l-10.63 13.943c-.137.414-.413.828-.69 1.104-1.24 1.38-2.483 2.484-3.864 3.59-1.38.965-2.347 2.483-3.037 4.416-.553 1.795-.83 3.728-.553 5.798.138 1.794 1.104 3.45 2.623 4.832 1.38 1.242 2.9 2.208 4.693 2.76 1.657.69 3.175 1.243 4.832 1.933 1.52.69 3.037 1.796 4.693 3.038 1.52 1.38 1.794 2.9.69 4.97-.828 1.38-1.933 2.76-3.175 4.003-1.38 1.38-2.623 2.624-3.727 3.866-1.104 1.242-2.346 2.347-3.588 3.45-1.38 1.243-2.624 2.348-3.866 3.314-1.242 1.243-2.9 1.38-4.97.69-1.794-.414-3.174-1.38-4.14-2.76-1.105-1.38-1.933-2.485-2.347-3.452-.552-1.104-1.242-1.656-1.795-2.07-.69-.414-1.38-.69-2.346-.966-.828-.415-2.485-.276-4.693.414-2.208.552-4.14 1.38-5.383 2.485-1.104.967-2.484.967-4.003.276-.83.138-1.656.276-2.346.276 2.07 3.59 2.898 7.178 2.623 10.767.276-3.59-.55-7.18-2.622-10.768-.83-.138-1.52-.276-2.21-.415-.827-.414-2.07-1.794-3.45-4.14.966 3.727.966 7.454 0 11.042.138 1.38.414 2.484.552 3.726 1.657 8.56 4.003 13.804 7.178 15.736 2.76-1.656 4.832-5.52 6.35-11.32.552 8.974 3.037 15.46 7.592 19.327 1.657-1.796 2.76-3.59 3.313-5.522.966-3.037 1.794-6.35 2.346-10.216 2.346 4.694 5.107 7.73 8.558 9.25.552.275 1.242.55 2.07.828 1.242-1.795 2.346-3.45 3.313-5.246 1.243-2.76 2.21-5.52 2.762-8.42 1.242 1.933 3.174 3.45 5.935 4.417 2.485.83 5.522 1.243 9.11 1.243.277-.966.553-1.933.69-3.037.416-2.208.553-4.417.553-6.488 0-1.104 0-2.21-.137-3.313 0-.552-.138-1.104-.138-1.657 4.97.83 10.076-.276 15.46-3.588-.414-.83-.69-1.795-1.104-2.624-.69-1.656-1.518-3.45-2.484-5.245-1.104-1.93-2.347-3.864-3.727-6.072 1.103-.276 2.207-1.38 3.45-3.175 1.243-1.933 2.485-4.693 3.865-8.42-.138-.138-.276-.276-.552-.415-1.794-1.794-3.59-3.175-5.383-4.14-1.104-.69-2.21-1.243-3.313-1.52-.828-.276-1.657-.552-2.347-.69 1.795-3.45 2.76-7.04 2.623-11.043 0-.828 0-1.794-.138-2.76-1.243-.277-2.485-.277-3.59-.415-3.865-.138-7.04.414-9.8 1.52 0-.14 0-.277.138-.277v-.138" fill="#000"/><path d="M258.1 152.874c-1.243 1.795-2.348 2.9-3.452 3.175 1.38 2.207 2.623 4.14 3.727 6.072 5.246.414 10.49-.276 15.322-1.794 11.043-2.9 19.05-8.56 24.02-16.84 1.38-2.21 2.623-4.694 3.45-7.316-3.865 1.104-7.73 1.794-11.595 2.07-4.555.414-9.248.138-13.94-.553-4.695 3.727-9.388 5.797-14.22 6.35.277.137.416.275.553.414-1.38 3.726-2.623 6.487-3.866 8.42 6.487-.276 12.975-1.933 19.463-4.693-6.488 2.76-12.976 4.418-19.464 4.694M185.767 139.622l-3.45-3.037c-.14 4.832-1.105 9.11-2.9 13.252-5.66-1.795-8.834-5.798-9.8-12.148-.83 4.278-4.28 8.42-10.078 12.422-2.07-4.278-3.176-8.558-2.9-12.7l-4.003 2.21c-.415 2.622-1.104 5.106-1.657 7.177l14.632 21.533c.828-.967 1.52-1.794 1.933-2.76.276-.69.414-1.243.552-1.795.553.828.967 1.656 1.657 2.484 1.794 2.21 4.417 4.003 7.592 5.384h.138c4.417-1.243 7.454-4.003 8.973-8.42 1.38 2.346 2.623 3.727 3.45 4.14.69.138 1.38.276 2.21.415.69 0 1.518-.137 2.346-.275 2.347-.69 4.556-2.346 6.902-5.107-10.353-1.933-15.598-9.524-15.598-22.776" fill="#000"/><path d="M186.458 174.27c.966-3.59.966-7.316 0-11.043-1.52 4.417-4.556 7.178-8.973 8.42v9.525-9.524h-.138c-3.175-1.38-5.798-3.175-7.592-5.384-.69-.828-1.104-1.657-1.657-2.484l.276 8.558 12.423 18.083c2.485-4.14 4.418-9.524 5.66-16.15" fill="#000"/><path d="M194.188 193.733c-3.175-1.933-5.52-7.178-7.178-15.736v20.154-20.153c-.138-1.242-.414-2.347-.552-3.727-1.243 6.626-3.175 12.01-5.66 16.15l10.49 15.46c.83-2.208 1.52-4.555 2.072-7.177.275-1.52.55-3.175.828-4.97" fill="#000"/><path d="M180.797 190.42l-12.423-18.083-2.76-4.003L150.98 146.8l-64.6-94.557 28.436-19.326 2.208 3.175c.828 1.104 1.933 1.794 3.313 2.07 1.38.276 2.76 0 4.003-.828 1.104-.828 1.933-1.932 2.208-3.45.276-1.38 0-2.762-.828-4.004h-.138l-1.38-2.07 1.52-1.105h.137c.413-.276.827-.69 1.24-1.104.415-.69.69-1.38.967-2.208.276-1.52 0-2.9-.828-4.003-.83-1.243-1.934-2.072-3.452-2.21-1.38-.276-2.623-.138-3.727.552l-1.793 1.242-1.38-1.933c-.828-1.24-1.933-1.93-3.45-2.207-1.38-.276-2.762 0-4.005.828-1.104.83-1.932 1.934-2.208 3.314-.276 1.38 0 2.624.69 3.866l2.485 3.59L81.96 45.754 60.704 14.56l3.313-2.21c1.104-.828 1.795-1.932 2.07-3.312.138-1.38-.138-2.76-.966-3.865-.827-1.243-1.932-2.07-3.312-2.346-1.518-.276-2.76 0-4.003.966h-.138l-1.932 1.38-1.104-1.518v-.138c-.828-1.105-1.932-1.933-3.45-2.208-1.38-.277-2.76 0-4.003.827-1.243.828-1.933 2.07-2.21 3.45-.275 1.38-.137 2.624.69 3.728L46.9 11.11l-1.933 1.38h-.138c-1.105.828-1.933 1.932-2.21 3.45-.275 1.38 0 2.762.83 4.004.828 1.104 1.932 1.933 3.45 2.21 1.38.275 2.623 0 3.727-.69l3.727-2.486 21.258 31.197-9.525 6.488-4.14 2.9-2.07 1.38-8.284 5.658-3.727 2.486-2.485-3.45c-.828-1.243-1.932-1.934-3.312-2.072-.828-.276-1.52-.138-2.347 0-.55.138-1.103.414-1.655.83-1.104.827-1.932 1.93-2.208 3.312-.276 1.52 0 2.76.828 4.14h.138l1.242 1.934-1.795 1.242c-1.104.69-1.794 1.795-1.932 3.175-.276 1.518 0 2.76.828 4.003.414.69.967 1.242 1.657 1.656.414.276 1.104.415 1.794.553 1.38.274 2.76 0 3.865-.83h.138l1.52-1.104.55.966.83 1.104v.138c.828 1.105 1.932 1.933 3.45 2.21 1.38.275 2.762 0 4.004-.83.414-.414.828-.69 1.242-1.104.415-.69.828-1.38.966-2.347.276-1.38 0-2.484-.69-3.727l-2.21-3.313 1.243-.828 8.697-5.936 7.454-5.108 10.353-7.04 67.5 98.836 4.97 7.316 8.558 12.423 5.66 8.42 1.794 2.623 8.282 12.147.83 1.243 9.385 13.804.55.69 10.215 14.908 13.667 20.154 6.625 9.663 17.67 25.812 1.103 1.656 20.43 29.817.69 1.104.83 1.24 6.073 8.836.828 1.242.69 1.104 2.762 3.866c.552 0 1.242.137 2.07.414.138 0 .414.138.69.276.138.138.414.276.69.414v-.414c.276-2.208 1.242-3.865 2.9-5.107.413-.137.69-.413 1.103-.55.552-.14.828-.69.828-1.243v-.828.827c0 .552-.276 1.104-.828 1.242-.414.137-.69.413-1.104.55-1.656 1.243-2.622 2.9-2.898 5.108v.414c.552.552 1.104 1.242 1.52 2.208 3.726 0 6.21 1.52 7.315 4.417.552-.276 1.105-.69 1.52-1.242.966-1.104 1.24-3.037 1.103-5.383v-.414c-.137-2.485-.275-4.83-.275-6.902 0-.966 0-1.933.138-2.76-.138-.554-.138-1.105-.138-1.658-.138-.69-.276-1.38-.552-1.933-.966-2.623-3.175-3.313-6.626-2.208-2.347.828-4.832 1.104-7.454.966l.414.69c1.52 2.346 3.037 4.555 4.694 6.902-1.656-2.347-3.174-4.556-4.693-6.902l-.414-.69-46.795-68.33-10.905-16.15-4.694-6.902-6.212-9.11-5.797-8.558-1.104-1.38-2.346-3.45-10.493-15.462" fill="#FFD500"/><path d="M193.36 198.703c-.553 2.623-1.243 4.97-2.072 7.178l2.346 3.452.553.69c0-3.728-.276-7.455-.828-11.32" fill="#000"/><path d="M193.36 198.703c.55 3.865.827 7.592.827 11.32l.552.69 5.796 8.557c.138-1.242.276-2.484.414-3.865-2.9-3.59-4.97-8.697-6.073-15.322-.276-2.07-.553-4.14-.69-6.35-.276 1.795-.552 3.45-.828 4.97" fill="#000"/><path d="M194.188 210.022l-.553-.69 1.105 1.38-.552-.69" fill="#FFD500"/><path d="M208.13 201.74c-.967 6.764-3.314 11.32-7.18 13.666-.137 1.38-.275 2.623-.413 3.865l6.21 9.112c.277-2.07.968-4.14 1.658-6.074 1.104-2.623 2.347-5.107 4.003-7.454.69-.967 1.242-1.795 2.07-2.624-2.345-5.383-3.312-10.767-3.036-16.012-.552 1.932-1.656 3.727-3.313 5.522" fill="#000"/><path d="M208.405 222.307c-.69 1.933-1.38 4.003-1.657 6.074l4.694 6.903c-1.795-4.28-2.76-8.697-3.037-12.976" fill="#000"/><path d="M214.48 212.23c-.83.83-1.38 1.657-2.072 2.624 1.38 9.248 5.108 18.635 11.043 28.02-5.935-9.385-9.662-18.772-11.042-28.02-1.656 2.346-2.9 4.83-4.003 7.454.276 4.28 1.242 8.696 3.037 12.976l10.905 16.15c3.174 2.21 6.764 3.314 10.767 3.176-2.21-3.313-2.21-6.764 0-10.077-5.936-6.902-9.663-13.667-11.043-20.568-3.174-2.9-5.796-6.903-7.59-11.735" fill="#000"/><path d="M214.48 212.23c1.794 4.832 4.416 8.835 7.59 11.733 4.142 3.865 9.388 5.936 15.737 6.35-2.208-5.384-3.45-10.49-3.59-15.323-.275-3.174 0-6.073.69-8.973-3.865-5.107-6.35-10.214-7.177-15.184-.967 1.795-2.07 3.45-3.313 5.246-.828-.277-1.52-.553-2.07-.83-.14 4.417.966 8.834 3.174 13.39-2.207-4.556-3.312-8.973-3.173-13.39-3.45-1.52-6.212-4.555-8.56-9.25-.55 3.867-1.38 7.18-2.345 10.217-.276 5.246.69 10.63 3.037 16.013M200.95 215.405c3.866-2.347 6.213-6.902 7.18-13.666-4.556-3.867-7.04-10.354-7.593-19.327v16.15-16.15c-1.518 5.797-3.59 9.663-6.35 11.32.138 2.208.414 4.278.69 6.35 1.105 6.625 3.175 11.733 6.074 15.322M260.86 167.367c.414.83.69 1.795 1.104 2.624-5.384 3.314-10.49 4.418-15.46 3.59 0 .552.138 1.104.138 1.656 8.696 2.76 17.392 4.003 26.09 3.865 14.77.416 24.57-5.796 29.678-18.634-2.21.553-4.28.83-6.35 1.105-2.07.276-4.28.415-6.488.553-1.932 0-3.865-.138-5.797-.276-3.313-.275-6.626-.828-10.078-1.518-4.83 1.517-10.076 2.207-15.322 1.793.967 1.794 1.795 3.588 2.485 5.244 4.417 1.105 8.972 1.105 13.942 0-4.97 1.105-9.524 1.105-13.942 0" fill="#000"/><path d="M276.458 183.38c-1.38-1.38-2.623-2.9-3.727-4.28-8.696.14-17.392-1.103-26.088-3.864.137 1.104.137 2.21.137 3.313 6.073 4.692 12.56 8.005 19.463 9.8-6.902-1.794-13.39-5.108-19.464-9.8 0 2.07-.138 4.278-.553 6.487 3.865 5.797 8.834 10.353 14.91 13.666 2.07.828 4.14 1.38 6.21 1.794 9.663 1.933 19.74.276 30.23-4.97-3.45-1.103-6.764-2.484-9.8-4.002-4.417-2.21-8.143-4.97-11.32-8.145" fill="#000"/><path d="M272.73 179.1c1.105 1.38 2.347 2.9 3.728 4.28 18.36-.966 31.612-7.592 39.894-20.016-8.282 12.424-21.534 19.05-39.894 20.016 3.176 3.175 6.902 5.936 11.32 8.145 10.215-.966 20.43-5.522 30.782-13.666 10.077-12.563 15.047-25.262 14.632-38.237-4.97 3.588-9.938 4.693-14.908 3.313-4.28 6.902-11.733 13.114-22.225 18.635 2.07-.275 4.14-.55 6.35-1.104-5.108 12.837-14.91 19.05-29.68 18.635M236.427 186.83c-2.76-.965-4.693-2.483-5.935-4.416-.552 2.898-1.52 5.66-2.76 8.42.827 4.97 3.312 10.077 7.177 15.184 2.76 3.037 5.796 5.522 8.972 7.455 3.865 2.346 8.006 4.003 12.56 4.97 3.867.69 8.146.965 12.7.69-1.518-1.933-2.76-3.866-3.864-5.66-2.76-4.97-4.14-9.8-4.14-14.77-6.076-3.314-11.044-7.87-14.91-13.667-.138 1.104-.414 2.07-.69 3.037-3.59 0-6.626-.414-9.11-1.242 1.104 4.97 5.383 10.354 13.113 15.876-7.73-5.522-12.008-10.906-13.113-15.875" fill="#000"/><path d="M234.91 206.018c-.69 2.9-.968 5.798-.69 8.973 6.625 10.63 17.53 19.603 32.99 26.78 11.32 6.903 24.433 7.455 39.34 1.657-5.382-2.07-8.42-4.83-9.248-8.144-17.255-4.14-30.782-9.8-40.86-16.84-4.555-.967-8.696-2.624-12.56-4.97 6.763 9.386 18.496 17.53 35.06 24.432-16.563-6.902-28.297-15.046-35.06-24.432-3.176-1.933-6.212-4.418-8.973-7.455" fill="#000"/><path d="M269.143 219.132c-4.555.276-8.834 0-12.7-.69 10.078 7.04 23.605 12.7 40.86 16.84 12.838-1.24 22.5-7.177 28.85-17.806-6.902.275-12.285-1.105-16.012-3.866-14.908 3.59-29.815 3.59-44.86-.137 1.102 1.794 2.344 3.727 3.863 5.66 8.973 3.865 19.602 5.245 31.887 4.003-12.286 1.242-22.915-.138-31.887-4.004" fill="#000"/><path d="M267.348 200.497c-2.07-.414-4.14-.966-6.21-1.794 0 4.97 1.38 9.8 4.14 14.77 15.046 3.728 29.954 3.728 44.862.138 14.632-9.937 23.33-21.81 25.813-35.75-4.97 2.346-10.905 2.346-17.393 0-10.353 8.143-20.567 12.7-30.782 13.665 3.037 1.52 6.35 2.9 9.8 4.003-10.49 5.245-20.567 6.902-30.23 4.97 15.046 6.764 31.06 5.66 47.9-3.175-16.84 8.833-32.853 9.938-47.9 3.174M330.432 108.287c-3.037 2.9-7.178 4.417-12.285 4.417-6.488 12.423-13.252 22.638-20.43 30.782-4.97 8.282-12.976 13.942-24.02 16.84 3.45.69 6.765 1.243 10.078 1.52 9.663-4.832 19.74-13.115 30.368-25.124-10.63 12.01-20.706 20.292-30.368 25.123 1.932.138 3.865.276 5.797.276 2.21-.137 4.417-.275 6.488-.55 10.49-5.522 17.945-11.734 22.225-18.636 8.42-10.767 12.56-22.362 12.147-34.647M267.21 256.265c-2.76-4.832-2.76-9.663 0-14.494-15.46-7.177-26.365-16.15-32.99-26.78.137 4.833 1.38 9.94 3.588 15.324 2.07 5.246 6.35 10.49 12.976 15.6-6.626-5.11-10.906-10.354-12.976-15.6-6.35-.414-11.595-2.485-15.736-6.35 1.38 6.902 5.107 13.667 11.043 20.568 9.11 7.73 20.43 11.595 34.095 11.733" fill="#000"/><path d="M220.69 312.446s-.138 0-.138.138c-.138.138-.414.138-.552.414-.276.138-.552.276-.966.553-.138 0-.276.138-.276.276l.276-.138-.415.138c6.625 4.556 19.05 8.145 37.408 10.905 1.52 1.796 2.484 4.004 2.9 6.765.413 2.898.55 5.936.55 8.973 0 1.518.69 2.76 2.072 3.588 0 0 0-.138.138-.138v.138c.552.415 1.38.83 2.346 1.105 1.105.14 2.07.415 2.9.415h.275c1.655.138 3.036-.138 4.278-.552 1.104-.552 1.933-1.242 2.484-2.07-.414.137-.828.137-1.104.275-.966 0-1.657-.553-1.795-1.52-.414-1.104-.275-2.07.276-3.036.69-.966 1.518-1.52 2.76-1.794-.415-.966-.966-1.657-1.52-2.208-.275-.138-.55-.276-.69-.414-.275-.138-.55-.276-.69-.276-.827-.276-1.518-.414-2.07-.414-.275 0-.413 0-.55.137-.553 0-.967.276-1.38.553-.14.138-.277.138-.277.276-.414.415-.966.552-1.656.415.69.137 1.242 0 1.656-.415 0-.138.138-.138.276-.276.413-.276.828-.553 1.38-.553-1.658-.552-2.348-1.794-2.21-4.003l-.69-1.104c-.275-.415-.55-.828-.827-1.242h-3.175v.138l-.138-.138H264.863l-6.074-8.835-.83-1.243c-8.144-2.346-15.736-5.383-22.638-9.11-.552.275-2.07.137-4.555-.415-2.347-.552-3.728-1.242-3.728-2.07-1.52 2.346-3.314 4.278-5.384 6.073-.413.14-.69.416-.966.69M290.262 350.684c-.414.552-.828 1.104-1.38 1.656-1.38 1.38-2.898 1.795-4.417 1.38-.138 0-.138.138-.138.276-.276.138-.552.414-.828.69l11.18 16.288c2.9.276 4.97-1.242 6.35-4.417l-10.768-15.873" fill="#FFD500"/><path d="M165.2 68.394c0 2.9-1.38 4.97-4.142 6.35-2.9 1.242-5.246.552-7.04-2.07-.69 1.932-2.347 2.898-4.83 2.898h-.83c-1.933-.69-3.865-2.347-5.798-4.832M184.663 62.873c2.07.69 3.313 1.656 3.865 2.9M184.663 78.47h-39.065M165.062 58.593v-5.108M171.41 59.007c-.69-.552-1.656-.69-2.622-.276-.966.14-1.656.415-2.07.69M158.71 59.007c.69-.552 1.52-.69 2.624-.276.966.14 1.657.415 2.208.69M145.46 62.873c-2.072.69-3.314 1.656-3.866 3.036M165.2 62.32v6.074M165.2 68.394c.137 3.865 1.793 6.21 4.968 6.625 3.175.55 5.246-.14 6.21-2.21-.136 1.933 1.106 2.9 3.452 3.175h.69c3.038-.552 5.384-2.07 7.04-5.107" stroke="#B99D62" stroke-width=".25"/><path d="M297.854 62.044c1.933-15.736-2.898-27.884-14.632-36.442M309.45 83.44c1.518-11.18.69-22.224-2.347-33.268-2.347 5.52-5.383 9.387-9.25 11.872M169.064 395.822v-17.67M223.452 242.875c-5.936-9.386-9.663-18.773-11.043-28.02M234.22 214.99c.137 4.833 1.38 9.94 3.588 15.324M169.064 378.153v-51.488M169.064 322.66c-4.693-6.624-8.006-14.77-9.8-24.57M185.353 92.136c1.105 0 2.21-.138 3.313-.138 1.242 0 2.208-.138 3.037-.553.966-.552 1.52-1.242 1.657-2.208.138-.69.275-1.52.138-2.07 0-.276 0-.553-.138-.69 0 .276 0 .552-.276.69-.552.69-1.52 1.104-2.76 1.242-1.243 0-2.347-.416-3.038-.968-.966-.414-1.657-1.104-1.933-1.794-.414-.69-.966-1.52-1.38-2.21M181.21 89.928c.277.552.69.966 1.244 1.38.828.552 1.656.828 2.898.828M275.354 65.633c.276-4.97 0-9.94-1.104-15.046L254.234 89.79M254.234 89.79c-.966-1.933-2.07-3.728-3.175-5.52-1.105 9.523-4.832 18.772-11.32 27.606M252.026 116.983c3.313-4.142 6.625-9.387 10.077-16.012M256.167 96.83c.552 5.383-.83 12.147-4.14 20.153M269.143 120.572c1.657-.275 3.45-.552 5.107-.966M274.802 92c-4.14 3.312-8.42 6.35-12.7 8.972M239.74 111.876c1.656 4.832 1.656 8.973-.138 12.7" stroke="#666"/><path d="M239.602 124.575v.138c-.138 0-.138.138-.138.276 2.76-1.105 5.936-1.658 9.8-1.52" stroke="#666"/><path d="M239.74 111.876l-10.63 13.942c-.137.414-.413.828-.69 1.104-1.24 1.38-2.483 2.484-3.864 3.59-1.38.965-2.347 2.483-3.037 4.416-.553 1.795-.83 3.728-.553 5.798.138 1.794 1.104 3.45 2.623 4.832 1.38 1.242 2.9 2.208 4.693 2.76 1.657.69 3.175 1.243 4.832 1.933 1.52.69 3.037 1.796 4.693 3.038 1.52 1.38 1.794 2.9.69 4.97-.828 1.38-1.933 2.76-3.175 4.003-1.38 1.38-2.623 2.624-3.727 3.866-1.104 1.242-2.346 2.347-3.588 3.45-1.38 1.243-2.624 2.348-3.866 3.314-1.242 1.243-2.9 1.38-4.97.69-1.794-.414-3.174-1.38-4.14-2.76-1.105-1.38-1.933-2.485-2.347-3.452-.552-1.104-1.242-1.656-1.795-2.07-.69-.414-1.38-.69-2.346-.966-.828-.415-2.485-.276-4.693.414-2.208.552-4.14 1.38-5.383 2.485-1.104.967-2.484.967-4.003.276M239.602 124.575l11.32-21.948M252.716 138.38c1.104.275 2.21.827 3.313 1.518M258.1 152.874c-1.243 1.795-2.348 2.9-3.452 3.175 1.38 2.207 2.623 4.14 3.727 6.072M261.412 144.04c.276.137.415.275.552.414-1.38 3.727-2.623 6.487-3.865 8.42M258.1 152.874c6.487-.276 12.975-1.933 19.463-4.693M256.03 139.898c1.793.966 3.588 2.347 5.382 4.14M275.63 137.69c-4.694 3.727-9.387 5.797-14.218 6.35M271.075 128.854c-4.97 4.97-9.938 8.697-15.046 11.043M252.716 138.38c5.107-4.97 10.49-10.906 16.427-17.808M249.265 123.47c.966-2.207 1.932-4.416 2.76-6.487M252.992 126.646c.138 4.003-.828 7.592-2.623 11.043.69.137 1.518.414 2.346.69M249.265 123.47c1.104.14 2.346.14 3.59.415.137.966.137 1.933.137 2.76M262.24 113.67c-3.036 6.488-6.073 10.905-9.248 12.976" stroke="#666"/><path d="M165.613 168.334c.828-.967 1.52-1.794 1.933-2.76.276-.69.414-1.243.552-1.795.553.827.967 1.655 1.657 2.483 1.794 2.21 4.417 4.003 7.592 5.384h.138c4.417-1.243 7.454-4.003 8.973-8.42 1.38 2.346 2.623 3.727 3.45 4.14.69.138 1.38.276 2.21.415.69 0 1.518-.138 2.346-.276 2.347-.69 4.556-2.346 6.902-5.107-10.353-1.934-15.598-9.526-15.598-22.777 2.9 1.518 5.936 1.38 9.248-.276-6.487-2.347-10.628-6.35-12.56-12.423 2.483 1.794 4.968 1.794 7.453 0-5.522-1.52-8.145-4.97-8.145-10.077 1.932 1.242 3.865 1.242 5.936 0-4.002-2.76-6.35-6.902-7.178-12.423.415.414.83.966 1.657 1.932.69.69 1.518 1.242 2.484 1.38 1.104.276 2.485.138 4.417-.415-1.24-.274-2.346-.827-3.036-1.517s-.828-1.52-.276-2.76c.414-1.244.83-2.21 1.242-3.176.276-.83.552-1.794.552-2.76.138-1.105 0-2.072-.414-3.038-.276-1.106-.966-1.658-1.795-1.934" stroke="#666"/><path d="M185.767 139.622l-3.45-3.037c-.14 4.832-1.105 9.11-2.9 13.252-5.66-1.795-8.834-5.798-9.8-12.148-.83 4.278-4.28 8.42-10.078 12.422-2.07-4.278-3.176-8.558-2.9-12.7l-4.003 2.21M182.454 126.922l-3.45-4.832c-2.072 2.21-2.9 5.108-2.486 8.696-3.727-1.794-6.21-4.693-7.454-8.834-.69 4.14-3.175 7.316-7.316 9.25l-2.347-7.18-3.864 2.9M186.458 174.27c.966-3.59.966-7.316 0-11.043M168.098 163.78l.276 8.557M194.188 193.733c-3.175-1.933-5.52-7.178-7.178-15.736M180.797 190.42c2.485-4.142 4.417-9.525 5.66-16.15M187.01 177.997c-.14-1.242-.415-2.347-.553-3.727M177.485 181.17v-9.523M194.74 178.55c.275-3.59-.552-7.18-2.623-10.768M99.493 230.313c2.21-5.384 3.45-10.49 3.727-15.323M193.36 198.703c-.553 2.623-1.243 4.97-2.072 7.178M194.188 210.022c0-3.728-.276-7.455-.828-11.32M115.23 223.963c-4.142 3.865-9.387 5.936-15.737 6.35M93.42 213.473c-6.766 9.386-18.5 17.53-35.064 24.432M177.623 199.807v-.138M169.34 214.715l-.552.552M153.88 222.86c1.52 5.66 3.865 10.214 7.178 13.39 0 0 .138 0 .138.136 3.037-2.76 5.246-8.696 6.764-17.807v-3.866M169.34 214.715v3.865c1.52 9.11 3.728 15.046 6.765 17.807l.138-.137c3.588-3.45 6.073-8.283 7.454-14.77M168.788 215.267c-.276-.276-.69-.414-.828-.552M124.892 214.854c-1.38 9.248-5.107 18.635-11.043 28.02M103.22 214.99c-6.765 10.63-17.67 19.603-33.13 26.78M187.286 213.75c-.69 1.104-1.52 2.07-2.208 2.898-3.866-4.555-6.35-10.215-7.454-16.84" stroke="#666"/><path d="M183.696 221.48c.276-1.52.69-3.176.966-4.833.69 8.696 3.037 15.323 6.764 19.74M177.623 219.822v-20.016M176.794 198.426c-.828 6.074-3.45 11.458-7.454 16.29M211.442 196.218c-.553 1.932-1.657 3.727-3.313 5.52M206.75 228.38c.275-2.07.966-4.14 1.656-6.073M200.537 219.27c.138-1.242.276-2.484.414-3.865M128.895 222.307c-.552 7.454-3.175 15.046-8.006 22.776M212.408 214.854c.69-.967 1.242-1.795 2.07-2.624M214.48 212.23c1.794 4.832 4.416 8.835 7.59 11.733M208.13 201.74c-.967 6.764-3.314 11.32-7.18 13.666M208.405 222.307c1.104-2.623 2.347-5.107 4.003-7.454M211.442 196.218c-.276 5.245.69 10.628 3.037 16.012M222.348 195.25c-3.45-1.518-6.212-4.554-8.56-9.248-.55 3.866-1.38 7.18-2.345 10.216M200.95 215.405c-2.898-3.59-4.968-8.697-6.072-15.322-.276-2.07-.553-4.14-.69-6.35M194.188 193.733c-.276 1.795-.553 3.45-.828 4.97M200.537 182.414c-1.518 5.797-3.59 9.663-6.35 11.32M208.13 201.74c-4.556-3.866-7.04-10.353-7.593-19.326M187.01 198.15v-20.154M200.537 198.564v-16.15M168.512 198.98v-12.7M260.86 167.367c.414.83.69 1.795 1.104 2.624-5.384 3.314-10.49 4.418-15.46 3.59 0 .552.138 1.104.138 1.656M258.375 162.122c.966 1.794 1.794 3.59 2.485 5.245M272.73 179.1c1.105 1.38 2.347 2.9 3.728 4.28M274.802 167.367c-4.97 1.105-9.524 1.105-13.942 0M258.375 162.122c5.246.414 10.49-.276 15.322-1.794M236.427 186.83c-2.76-.965-4.693-2.483-5.935-4.416-.552 2.898-1.52 5.66-2.76 8.42M246.228 185.037c-.138 1.104-.414 2.07-.69 3.037-3.59 0-6.625-.414-9.11-1.242M246.78 178.55c0 2.07-.137 4.278-.552 6.487M246.643 175.236c.137 1.104.137 2.21.137 3.313M234.91 206.018c-.69 2.9-.968 5.798-.69 8.973M234.91 206.018c2.76 3.037 5.796 5.522 8.972 7.455M269.143 219.132c-4.555.276-8.834 0-12.7-.69M265.278 213.473c1.104 1.794 2.346 3.727 3.865 5.66M267.348 200.497c-2.07-.414-4.14-.966-6.21-1.794M261.137 198.703c0 4.97 1.38 9.8 4.14 14.77M261.137 198.703c-6.075-3.313-11.043-7.87-14.91-13.666M266.244 188.35c-6.902-1.794-13.39-5.108-19.464-9.8M227.73 190.834c.83 4.97 3.314 10.077 7.18 15.184M249.54 202.706c-7.728-5.52-12.008-10.905-13.113-15.875" stroke="#666"/><path d="M227.73 190.834c-.966 1.795-2.07 3.45-3.312 5.246-.828-.276-1.52-.552-2.07-.83M256.442 218.442c-4.555-.966-8.696-2.623-12.56-4.97M272.73 179.1c-8.696.14-17.392-1.103-26.088-3.864M225.522 208.642c-2.208-4.556-3.313-8.973-3.174-13.39M318.285 142.935c8.42-10.768 12.562-22.363 12.147-34.648-3.037 2.9-7.178 4.417-12.285 4.417M293.438 120.572c-.138.276-.276.552-.415.967-3.175 5.244-8.834 10.627-17.393 16.15M284.465 115.88c3.727-1.934 7.454-4.143 10.905-6.903.414 1.657.414 3.313.276 5.108-.276 2.07-.966 4.28-2.208 6.487M297.717 143.487c1.38-2.208 2.623-4.693 3.45-7.315-3.865 1.104-7.73 1.794-11.595 2.07" stroke="#666"/><path d="M318.56 177.858c10.077-12.562 15.047-25.26 14.632-38.236-4.97 3.588-9.938 4.693-14.908 3.313M318.146 112.705c-6.488 12.423-13.252 22.638-20.43 30.782M289.572 138.242c8.283-7.04 14.91-17.117 20.292-30.093M296.06 161.57c2.07-.276 4.14-.552 6.35-1.105-5.108 12.838-14.91 19.05-29.68 18.635" stroke="#666"/><path d="M283.775 161.846c1.932.138 3.865.276 5.797.276 2.21-.138 4.417-.276 6.488-.552M297.302 235.283c12.838-1.242 22.5-7.178 28.85-17.807-6.902.275-12.285-1.105-16.012-3.866M287.778 191.524c3.037 1.52 6.35 2.9 9.8 4.003-10.49 5.245-20.567 6.902-30.23 4.97M287.778 191.524c10.215-.966 20.43-5.522 30.782-13.666M314.143 136.723c-10.63 12.01-20.706 20.292-30.368 25.123M296.06 161.57c10.49-5.52 17.945-11.733 22.225-18.635" stroke="#666"/><path d="M310.14 213.61c14.632-9.938 23.33-21.81 25.813-35.752-4.97 2.347-10.905 2.347-17.393 0M269.143 219.132c8.973 3.866 19.602 5.246 31.887 4.004M262.103 100.97c8.006-11.732 12.562-23.466 13.25-35.337M286.674 60.387c-1.52 13.804-5.52 24.433-11.872 31.61M274.25 119.606c12.424-17.808 20.292-36.995 23.604-57.563M274.25 119.606c3.45-.828 6.902-2.208 10.215-3.727M273.697 160.328c3.45.69 6.765 1.242 10.078 1.518M276.458 183.38c3.176 3.175 6.902 5.936 11.32 8.145M289.572 138.242c-4.555.414-9.248.138-13.94-.553M316.352 163.364c-8.282 12.424-21.534 19.05-39.894 20.016" stroke="#666"/><path d="M274.802 92c2.76-2.21 5.52-4.557 8.42-7.04.414 11.87-4.28 23.74-14.08 35.613M315.247 197.322c-16.84 8.834-32.853 9.94-47.9 3.174M265.278 213.473c15.046 3.727 29.954 3.727 44.862.137M273.697 160.328c11.043-2.9 19.05-8.56 24.02-16.84M256.167 96.83c-.138-2.624-.83-4.97-1.933-7.04M264.45 81.783l-8.283 15.047M293.438 120.572c8.558-13.114 13.804-25.537 16.013-37.132M300.615 83.854c-4.003 13.528-9.25 24.157-16.15 32.025M283.223 25.602c.828 14.08-1.657 27.47-7.87 40.03M267.21 241.77c11.32 6.903 24.433 7.455 39.34 1.657-5.382-2.07-8.42-4.83-9.248-8.144M169.064 378.153c-.967 4.142-3.45 7.592-7.73 10.353M143.113 167.367c-1.657.967-3.037.83-4.14-.137-1.38-1.105-3.176-1.933-5.522-2.485-2.208-.69-3.865-.828-4.693-.414-.966.276-1.656.553-2.347.967-.552.415-1.242.966-1.657 2.07-.552.967-1.38 2.07-2.484 3.45-.967 1.38-2.348 2.348-4.142 2.762-1.932.69-3.727.552-4.97-.69-1.24-.967-2.484-2.072-3.864-3.314-1.243-1.104-2.347-2.21-3.59-3.45-1.104-1.243-2.346-2.485-3.727-3.866-1.242-1.242-2.346-2.623-3.174-4.003-.967-2.07-.83-3.59.828-4.97 1.52-1.242 3.038-2.347 4.694-3.037 1.52-.69 3.036-1.242 4.83-1.932 1.657-.552 3.176-1.52 4.556-2.76 1.52-1.38 2.485-3.038 2.623-4.833.276-2.07 0-4.003-.552-5.798-.69-1.933-1.655-3.45-3.036-4.417-1.38-1.104-2.623-2.208-3.727-3.59-.414-.275-.69-.69-.83-1.103L97.56 111.875M153.604 357.033c8.697-3.865 13.804-14.08 15.46-30.368M39.998 235.283c-.83 3.313-3.865 6.074-9.25 8.144 14.91 5.798 28.023 5.246 39.342-1.656M131.656 371.39c8.282-3.59 12.975-6.903 13.942-9.94M134.693 352.616c1.794 5.936 8.144 7.454 18.91 4.417M145.598 361.45c2.9-1.104 5.52-2.623 8.006-4.417M116.61 295.468c-.553 4.832-2.624 8.282-6.212 10.215M130.827 317.554c.138-.138.276-.138.415 0M131.242 317.554c.552 0 1.656-.138 3.175-.552-3.59-4.83-4.28-9.11-2.07-12.838" stroke="#666"/><path d="M110.122 370.285c4.417-4.14 10.63-6.212 18.498-6.074 6.074.277 11.733-.69 16.98-2.76M130.827 317.554c-5.107-.276-9.8-1.933-14.08-4.97h.138M159.263 298.09c-.138.967-.275 1.794-.69 2.76-1.933 6.35-7.454 8.007-16.29 5.11 2.21 12.422 8.422 18.082 18.36 16.978l-4.28 24.02c-.827 4.416-4.416 5.797-10.627 4.002-6.35-1.656-6.626-5.66-.83-11.87-9.523-.968-14.907 3.036-16.563 11.594M233.114 244.532c9.11 7.73 20.43 11.595 34.096 11.733-2.76-4.832-2.76-9.663 0-14.494" stroke="#666"/><path d="M222.348 251.434c3.174 2.208 6.764 3.313 10.767 3.175-2.21-3.314-2.21-6.765 0-10.078M237.808 230.313c2.07 5.246 6.35 10.49 12.976 15.6M80.996 218.442c-10.215 7.04-23.743 12.7-40.998 16.84M235.323 308.167c2.623.138 5.246-.828 7.87-2.76-5.522-1.657-8.283-5.798-8.146-12.562 0-2.623.553-4.83 1.795-6.488M197.776 253.366c.415-.415.83-.69 1.243-.967-4.005-3.314-4.695-6.075-2.21-8.283 2.346-2.07 5.246-2.484 8.42-1.104.276.275.69.414.966.552 1.104.69 1.795 1.794 2.208 3.59.552 1.655.138 3.726-.966 5.796 1.38-1.38 2.76-2.622 4.003-3.726M190.046 242.323c.552-1.795.966-3.727 1.38-5.936M176.38 236.8v-.55c0 .136 0 .274-.137.55-.83 6.626-3.037 12.425-6.488 17.256M167.684 254.194s.138.276.276.414c.138.276.414.552.552.69.276-.138.69-.414.83-.69l.136-.138c0-.138.138-.276.276-.414" stroke="#666"/><path d="M175.69 268.412c-2.484-2.347-4.417-7.04-5.797-13.804-.138-.276-.138-.414-.138-.552M184.938 252.814c-.414.414-.966.828-1.38 1.104" stroke="#666"/><path d="M183.56 253.918c-.277.276-.553.414-.83.552-3.45-3.175-5.66-9.11-6.35-17.67M190.046 242.323c-1.38 4.97-3.037 8.42-5.108 10.49M176.38 255.712v-18.91M193.083 267.032c-.552.552-1.242.967-2.07 1.38M183.56 253.918c-1.382 6.35-3.866 11.32-7.455 14.632 0 .138-.138.138-.138.138-.138 0-.276-.138-.276-.276M178.037 297.677c-.414-2.07-.138-4.14.69-5.798.966-1.795 2.484-3.176 4.832-4.418 5.244-2.623 9.523-1.794 12.974 2.623 3.313 4.28 3.59 9.11.83 14.356 2.483 1.243 4.968 1.105 7.59-.275M154.156 283.183c1.38 3.037 2.898 5.936 4.555 8.696 1.658 2.622 3.452 5.106 5.522 7.453 1.933-2.346 3.45-7.868 4.417-16.15.965 8.282 2.483 13.804 4.416 16.15 1.932-2.346 3.865-4.83 5.383-7.454 1.794-2.762 3.312-5.66 4.693-8.697" stroke="#666"/><path d="M175.69 268.412c-1.242 7.178-3.588 12.147-7.04 14.77-3.45-2.623-5.798-7.59-6.902-14.77M183.145 283.183c4.28-2.485 6.902-7.455 7.868-14.77M175.69 268.412c1.104 5.52 3.45 10.353 7.455 14.77M218.068 258.888c-1.794.69-3.45 2.07-5.107 4.14-4.968 6.488-9.662 9.112-13.94 8.145-3.175-.966-5.108-2.208-5.936-4.14M204.955 304.164c.414-.276.966-.552 1.52-.966 4.278-4.14 6.072-9.8 5.244-17.117.69 4.97 3.726 8.146 8.97 9.388M193.083 267.032c-.552-1.242-.69-2.9 0-4.832 1.242-4.14 2.76-7.04 4.693-8.834M191.012 268.412c-3.036-3.59-4.97-8.834-6.074-15.598M197.776 253.366c-5.66-1.657-8.282-5.246-7.73-11.043M191.427 236.387c2.623-1.518 4.693-3.865 6.35-7.316M59.875 148.18c6.35 2.76 12.838 4.417 19.325 4.693M219.035 313.55c.414-.275.69-.414.966-.552M218.62 313.827c.138-.138.276-.275.415-.275M218.758 313.827h-.138l.415-.138-.277.137M218.758 313.827c0-.138.138-.275.276-.275M218.62 313.827h.138M206.473 317.554c-.138-.138-.276-.138-.276 0" stroke="#666"/><path d="M204.955 304.164c2.208 3.728 1.52 8.007-1.933 12.838 1.38.414 2.484.552 3.175.552M206.197 317.554h.276M206.473 317.554c4.417-.276 8.42-1.52 12.147-3.728M177.347 327.77l-.69-4.833c9.94 1.104 16.15-4.555 18.497-16.98-8.972 2.9-14.494 1.243-16.426-5.107-.414-1.104-.69-2.208-.69-3.174M169.064 326.665v-4.004M169.064 322.66c4.417-6.486 7.315-14.77 8.972-24.983" stroke="#666"/><path d="M209.234 351.512c-1.38-10.767-6.902-15.047-16.98-12.423 5.66 6.21 5.385 10.214-.827 11.87-6.35 1.795-9.94.415-10.768-4.003l-3.314-19.187M193.36 361.45c-2.762-1.104-5.522-2.623-8.008-4.417" stroke="#666"/><path stroke="#666" d="M209.234 351.512h-.138l.138.138v-.138"/><path d="M128.343 350.684c-.138.275-.138.552-.276.828-3.727-.276-7.178 1.242-10.077 4.555-3.727 4.003-7.178 6.074-10.215 6.35-3.313.276-4.003-1.932-2.07-6.626-4.28 2.07-6.626 4.418-7.04 7.04-.414 1.934.276 4.004 1.932 6.35-4.28 2.348-6.625 5.108-7.177 8.145-1.105 4.97 3.588 10.49 14.08 16.564-1.656-9.25 0-14.77 4.97-16.704 2.346-.966 4.83-.414 7.177 1.38 2.898 3.037 4.003 6.488 3.175 10.63.414-1.38 1.52-3.176 3.175-5.522 1.52-2.485 3.865-4.003 6.626-4.693 2.76-.55 6.902-2.208 12.7-4.97 5.52-2.76 11.318-8.695 17.807-18.22 3.588 21.534-3.175 33.544-20.568 36.443 4.28 6.35 10.215 8.144 17.67 5.107-2.9 7.04-2.762 11.733.274 14.08 3.037 2.07 5.798 7.178 8.283 15.185 1.518-6.902 4.002-11.733 7.454-14.356 3.174-2.762 3.45-7.73.69-14.91 7.454 3.037 13.25 1.242 17.67-5.107-17.532-2.9-24.434-14.91-20.57-36.443 6.35 9.525 12.287 15.46 17.808 18.22 5.798 2.762 10.076 4.418 12.837 4.97 2.76.69 4.83 2.21 6.487 4.694 1.657 2.347 2.76 4.14 3.175 5.52-.69-4.14.415-7.59 3.313-10.628 2.346-1.794 4.693-2.346 7.178-1.38 4.83 1.933 6.488 7.455 4.83 16.703 10.354-6.074 15.186-11.596 14.22-16.565-.69-3.037-3.037-5.797-7.18-8.144 1.52-2.346 2.21-4.416 1.934-6.35-.552-2.622-2.9-4.97-7.04-7.04 1.795 4.695.966 6.903-2.07 6.627-3.175-.276-6.626-2.347-10.216-6.35-3.035-3.313-6.35-4.832-10.075-4.555" stroke="#666"/><path d="M228.973 370.285c-4.555-4.14-10.767-6.212-18.497-6.074h-.138c-6.074.277-11.733-.69-16.98-2.76M185.353 357.033c10.768 3.037 17.117 1.518 18.912-4.417M185.353 357.033c-8.696-3.865-13.666-14.08-15.184-30.368M100.873 186.83c-2.347.83-5.383 1.243-9.11 1.243-.276-.966-.552-1.933-.69-3.037M81.27 139.898c1.105-.69 2.21-1.242 3.314-1.52M97.836 284.01c3.037 1.933 4.417 4.694 4.556 8.835 0 6.764-2.76 10.905-8.282 12.56 2.623 1.934 5.245 2.9 7.868 2.762M75.06 113.67c3.037 6.488 6.074 10.905 9.25 12.976M70.09 241.77c2.76 4.832 2.76 9.664 0 14.495 13.666-.138 25.123-4.004 34.096-11.733M99.493 230.313c-1.932 5.246-6.21 10.49-12.976 15.6M104.186 244.532c2.208 3.313 2.208 6.764 0 10.077 6.764.137 12.423-3.176 16.703-9.526M167.684 269.516v-15.322M139.524 253.366c1.933 1.794 3.45 4.693 4.832 8.834.552 1.933.414 3.59-.138 4.832M139.524 253.366c5.66-1.657 8.283-5.246 7.73-11.043M154.156 283.183c3.865-4.417 6.35-9.25 7.592-14.77M146.288 268.412c1.104 7.316 3.727 12.285 7.868 14.77M146.288 268.412c3.037-3.59 5.107-8.834 6.073-15.598M144.217 267.032c.552.552 1.38.967 2.07 1.38M153.742 253.918c1.52 6.35 4.003 11.32 7.454 14.632 0 .138 0 .138.138.138s.276-.138.276-.276M132.346 304.164c2.623 1.38 5.108 1.52 7.73.276-2.9-5.246-2.623-10.077.69-14.356 3.45-4.417 7.73-5.246 12.976-2.623 2.347 1.244 3.866 2.624 4.832 4.418.828 1.794 1.104 3.865.69 6.21M132.346 304.164c-.414-.276-.966-.552-1.52-.966-4.278-4.14-5.935-9.8-5.244-17.117-.69 4.97-3.59 8.146-8.973 9.388" stroke="#666"/><path d="M97.836 284.01c5.66 2.21 11.182-.69 16.84-8.696-3.312 8.56-3.865 15.46-1.794 20.706 1.243-.138 2.623-.276 3.727-.552M220.69 295.468c1.243.276 2.485.414 3.866.552 1.933-5.245 1.38-12.147-1.795-20.706 4.28 6.35 8.698 9.387 12.977 9.387M227.04 305.683c-3.588-1.933-5.66-5.383-6.35-10.215M318.146 112.705c4.417-12.7 5.66-24.847 3.59-36.443-3.728 3.45-7.87 5.936-12.286 7.178M177.623 388.506c-5.246-3.45-7.87-8.006-8.145-13.527 0 1.103-.137 2.207-.414 3.173M85.274 116.983c-3.313-4.142-6.625-9.387-10.077-16.012M81.133 96.83c-.414 5.383.828 12.147 4.14 20.153M193.36 361.45c1.103 3.037 5.796 6.35 14.08 9.94M167.96 214.715c-4.693-5.522-7.316-11.872-7.73-18.912M90.658 175.236c0-.552.138-1.104.138-1.657-4.97.828-10.077-.277-15.46-3.59.414-.828.69-1.794 1.104-2.623" stroke="#666"/><path d="M144.217 267.032c-.83 1.933-2.76 3.175-5.798 4.14-4.418.968-9.11-1.656-14.08-8.143-5.11-6.49-10.77-6.35-17.256.413-3.728 3.866-5.52 8.145-5.383 12.838-.137 3.59-2.07 5.798-5.935 6.488.69.415 1.52.69 2.07 1.242M243.882 213.473c6.764 9.386 18.497 17.53 35.062 24.432M267.21 241.77c-15.46-7.177-26.365-16.15-32.99-26.78M222.07 223.963c1.38 6.902 5.108 13.667 11.044 20.568M237.808 230.313c-6.35-.414-11.595-2.485-15.736-6.35M208.405 222.307c.276 4.28 1.242 8.696 3.037 12.976M256.442 218.442c10.078 7.04 23.605 12.7 40.86 16.84M183.696 221.48v17.53M168.788 239.01v-23.743M66.087 56.66l-3.036-6.073c-.552 3.037-.966 6.074-1.104 8.973M83.066 89.79L69.676 63.7M97.56 111.876c-6.487-8.834-10.215-18.083-11.32-27.607-1.103 1.793-2.207 3.588-3.173 5.52M62.636 167.367c4.83 1.105 9.524 1.105 13.804 0M60.98 183.38c1.242-1.38 2.484-2.9 3.588-4.28M167.546 254.056l.138.138M115.23 223.963c-1.38 6.902-4.97 13.667-11.044 20.568M152.36 252.814c-2.07-2.07-3.726-5.52-5.106-10.49M161.61 268.412c2.346-2.347 4.417-7.04 5.797-13.804 0-.276 0-.414.138-.552M153.742 253.918c-.414-.276-.966-.69-1.38-1.104M147.254 242.323c-.553-1.795-.966-3.727-1.38-5.936M167.546 254.056c-3.45-4.83-5.66-10.63-6.488-17.255-.138-.275-.138-.414-.138-.55v.55M153.88 222.86v16.15M137.315 222.17c1.52 7.177 4.417 11.87 8.56 14.217M79.063 162.122c-5.383.414-10.49-.276-15.598-1.794M76.44 167.367c.69-1.656 1.52-3.45 2.623-5.245M146.564 83.44c-.69.83-1.104 1.794-1.52 3.037-.137.69 0 1.242.415 1.656M72.023 213.473c2.76-4.97 4.142-9.8 4.142-14.77M75.198 100.97c-7.316-10.767-11.733-21.395-12.976-32.163M152.223 87.857c-.828.276-1.518.414-2.208.552-.553 0-1.104.137-1.657.274-.828.138-1.52.138-1.933 0" stroke="#666"/><path d="M157.055 87.03c0 .827 0 1.655-.276 2.622-.14.828-.967 1.52-2.21 1.657-1.38.274-2.208-.83-2.346-3.452" stroke="#666"/><path d="M165.75 89.514c-1.38 0-2.622-.276-3.727-.414-1.104-.415-2.208-.69-2.9-1.242-.69-.415-1.38-.69-2.07-.828M152.223 87.857c.553-.138 1.105-.276 1.657-.553 1.104-.275 2.07-.552 3.175-.275M76.165 198.703c-2.07.828-4.142 1.38-6.212 1.794M68.296 219.132c1.38-1.932 2.623-3.865 3.727-5.66M27.988 83.44c-4.555-1.242-8.558-3.727-12.423-7.178-2.07 11.596-.828 23.743 3.59 36.443M50.627 60.387c.276 2.07.552 4.28.966 6.212M39.722 63.563c0-.552-.138-1.104-.138-1.52" stroke="#666"/><path d="M39.584 62.044c-4.003-2.484-7.04-6.35-9.387-11.872-3.174 11.043-3.865 22.086-2.208 33.268M54.216 25.602c-12.01 9.938-16.84 21.948-14.632 36.442M43.863 120.572c-1.104-2.208-1.933-4.417-2.208-6.487-.138-1.795-.138-3.45.275-5.108 3.45 2.76 7.178 4.97 10.905 6.902M61.67 137.69c-8.56-5.522-14.22-10.906-17.393-16.15-.138-.416-.276-.69-.415-.968M19.154 112.705c-5.107 0-9.248-1.52-12.285-4.417-.415 12.285 3.726 23.88 12.146 34.648" stroke="#666"/><path d="M19.016 142.935c-4.97 1.38-9.938.275-14.908-3.313-.414 12.976 4.555 25.675 14.632 38.236M39.584 143.487c-1.38-2.208-2.623-4.693-3.45-7.315 3.864 1.104 7.728 1.794 11.594 2.07M47.728 138.242c-8.144-7.04-14.908-17.117-20.292-30.093M39.584 143.487c-7.178-8.144-13.942-18.36-20.43-30.782M64.568 179.1c-14.77.416-24.57-5.796-29.54-18.634 2.07.553 4.14.83 6.212 1.105M41.24 161.57c2.07.275 4.28.414 6.488.552 1.933 0 3.865-.138 5.797-.276M49.522 191.524c-10.215-.966-20.43-5.522-30.782-13.666M69.953 200.497c-9.663 1.933-19.74.276-30.23-4.97 3.588-1.103 6.763-2.484 9.8-4.002M18.74 177.858c-6.488 2.347-12.424 2.347-17.393 0C3.83 191.8 12.527 203.67 27.16 213.61M27.16 213.61c-3.727 2.76-9.11 4.14-16.012 3.866 6.35 10.628 15.875 16.564 28.85 17.807M41.24 161.57c-10.49-5.52-17.945-11.733-22.225-18.635M53.525 161.846c-9.663-4.83-19.74-13.114-30.23-25.123M150.98 174.27v.276M130.827 317.554h.415M147.53 155.497c-2.9 4.693-6.626 7.178-11.043 7.04 2.347 2.485 4.556 4.14 6.626 4.83.69.277 1.518.416 2.208.554.69 0 1.38 0 2.072-.275.552-.138 1.104-.414 1.657-.69l3.45-4.14M153.19 120.71c.138 2.07-1.242 4.14-4.14 6.212 2.207 1.932 4.416 1.932 6.487 0-1.243 5.107-4.694 8.696-10.077 10.767 2.347 2.484 4.832 3.036 7.178 1.932-.415 2.623-1.104 5.107-1.657 7.178M88.173 123.47c-1.104-2.207-2.07-4.416-2.9-6.487M88.173 123.47c3.728-.137 6.902.415 9.8 1.52-.137-.138-.137-.276-.137-.276l-.138-.138M97.698 124.575l-11.32-21.948M97.698 124.575c-1.794-3.727-1.794-7.868-.137-12.7M84.31 126.646c0-.828 0-1.794.137-2.76 1.242-.277 2.484-.277 3.727-.415M62.498 92c4.28 3.312 8.42 6.35 12.7 8.972M63.05 119.606c1.795.414 3.452.69 5.246.966M66.225 128.854c4.97 4.97 10.077 8.697 15.046 11.043M75.888 144.04c-4.832-.553-9.525-2.624-14.218-6.35" stroke="#666"/><path d="M79.2 152.874c-1.24-1.933-2.622-4.693-3.864-8.42.138-.138.276-.276.552-.415M75.888 144.04c1.794-1.795 3.45-3.176 5.383-4.142M129.17 201.74c-1.655-1.795-2.76-3.59-3.312-5.52M79.063 162.122c.967-1.932 2.21-3.865 3.728-6.073-1.24-.277-2.346-1.38-3.588-3.176M84.584 138.38c.83-.277 1.657-.553 2.347-.69-1.793-3.452-2.76-7.04-2.622-11.044M68.296 120.572c5.798 6.902 11.32 12.838 16.288 17.807M122.82 212.23c-1.793 4.832-4.278 8.835-7.59 11.733M161.75 268.412h-.14M120.89 245.083c2.345 1.794 5.383 4.417 9.11 7.868-1.243-2.07-1.657-4.14-1.104-5.796.415-1.795 1.242-2.9 2.208-3.59.414-.137.69-.275.967-.55 3.175-1.38 6.074-.968 8.56 1.103 2.346 2.208 1.656 4.97-2.347 8.282.414.275.828.55 1.242.966M160.92 236.8c-.828 8.56-2.9 14.495-6.35 17.67-.276-.138-.552-.276-.83-.552M160.92 253.78V236.8M91.072 185.037c-.414-2.208-.552-4.417-.552-6.488M136.35 215.405c.275 2.484.552 4.693.966 6.764M109.57 190.834c-1.243-2.76-2.21-5.52-2.762-8.42-1.104 1.933-3.175 3.45-5.936 4.417M90.52 178.55c0-1.105 0-2.21.14-3.314M68.296 219.132c-9.11 3.866-19.74 5.246-31.887 4.004M128.895 222.307c-1.104-2.623-2.347-5.107-4.003-7.454M122.82 212.23c2.348-5.383 3.314-10.767 3.038-16.012M52.835 115.88c3.313 1.518 6.764 2.898 10.215 3.726M53.525 74.744c2.07 7.04 5.108 12.7 8.973 17.255M160.23 195.113v.69M160.23 195.804v-.69M80.996 218.442c-4.003.69-8.282.966-12.7.69M103.22 214.99c.137-3.173-.138-6.072-.83-8.972M102.392 206.018c-2.76 3.037-5.798 5.522-8.972 7.455M87.897 202.706c7.592-5.52 12.01-10.905 12.976-15.875M109.57 190.834c-.83 4.97-3.176 10.077-7.18 15.184M71.057 188.35c6.902-1.794 13.39-5.108 19.464-9.8M93.42 213.473c-3.867 2.346-8.008 4.003-12.425 4.97M64.568 179.1c8.56.14 17.393-1.103 26.09-3.864M91.072 185.037c-3.865 5.797-8.696 10.353-14.908 13.666M150.98 174.27l-1.93-7.316M125.858 196.218c-.967-3.037-1.795-6.35-2.347-10.216-2.346 4.694-5.106 7.73-8.42 9.25M136.35 215.405c2.898-3.59 4.97-8.697 6.073-15.322.414-2.07.552-4.14.828-6.35M143.25 194.147v-.415M160.23 195.113c3.174-2.623 5.383-6.35 6.487-11.32v-.137M142.56 179.79c-.55-4.002.416-8.005 2.762-11.87M143.25 193.733c3.45-2.208 6.075-8.696 7.73-19.463M161.058 180.067v-4.832M136.9 182.414c-.69 8.973-3.174 15.46-7.73 19.326M115.09 195.25l-2.07.83c-1.38-1.795-2.483-3.45-3.45-5.246M150.98 174.546c1.658 9.25 4.694 16.15 9.25 20.567M124.892 214.854c-.69-.967-1.242-1.795-2.07-2.624M137.315 222.17c-1.242 1.518-2.623 2.898-4.14 4.416-.69.69-1.52 1.38-2.485 2.07-.415-2.208-.967-4.278-1.795-6.35M150.98 174.546v21.81M129.17 201.74c.967 6.764 3.452 11.32 7.18 13.666M143.25 218.58c-.828-8.144-.828-16.29 0-24.433M111.778 208.642c2.208-4.556 3.313-8.973 3.313-13.39M47.728 138.242c4.693.414 9.25.138 13.942-.553M63.464 160.328c-10.905-2.9-18.912-8.56-23.88-16.84" stroke="#666"/><path d="M160.23 195.113c-.69 8.834-3.313 16.013-8.007 21.534-4.693-5.383-7.73-12.837-8.973-22.5M160.23 195.804v23.19M145.874 236.387c3.727-4.417 6.074-11.043 6.764-19.74.276 2.072.69 4.004 1.242 5.8v.413M81.133 96.83c.276-2.624.828-4.97 1.933-7.04M59.875 60.94c-4.693-11.18-6.625-22.915-5.66-35.338M136.9 199.67v-17.256M143.25 193.733c-2.898-1.656-4.97-5.52-6.35-11.32M72.99 81.783l8.143 15.047M49.522 191.524c4.417-2.208 8.144-4.97 11.458-8.145M68.296 120.572c-9.94-11.872-14.632-23.742-14.08-35.614 2.76 2.484 5.52 4.832 8.282 7.04M63.05 119.606C55.045 108.01 48.97 96 44.69 83.44M53.525 161.846c3.313-.275 6.626-.828 9.94-1.518M72.023 213.473c-14.908 3.727-29.816 3.727-44.862.137M20.81 163.364c8.42 12.424 21.673 19.05 40.17 20.016M43.863 120.572c-8.42-13.114-13.804-25.537-15.875-37.132M52.835 115.88c-6.902-7.87-12.147-18.498-16.012-32.026M69.953 200.497c-15.047 6.765-31.06 5.66-47.9-3.174" stroke="#666"/><path d="M190.6 65.357c1.38-2.21 3.035-4.555 4.83-6.902-.138.276-.552.276-1.104.415-.552.276-1.242.138-2.07-.138-.69-.276-1.243-.276-1.657 0-1.796 1.104-2.348 2.347-1.52 3.865-.967-1.104-1.794-1.794-2.76-2.21-.968-.274-1.658-.274-2.486.14-.828.414-1.38.69-1.794.965-.14.14-.552 0-1.104-.138.552.276.69.828.69 1.104 0 .415.138 1.104.275 2.07.277 1.105.968 1.933 2.072 2.485 1.243.69 1.243 1.794.276 3.727-1.104 1.795-2.76 2.485-4.97 1.933-1.656-.553-2.346-1.657-2.208-3.45M258.79 318.52l-.83-1.242-.69-1.104M269.143 333.567l-2.76-3.866" stroke="#B99D62"/><path d="M220 313c.138-.277.415-.277.552-.415 0-.138.138-.138.138-.138.276-.275.552-.552.967-.69 2.07-1.794 3.865-3.727 5.383-6.074 0 .83 1.38 1.52 3.728 2.07 2.484.553 4.003.69 4.555.415 6.902 3.728 14.494 6.765 22.638 9.11M187.562 214.163l10.214 14.908 13.667 20.155 6.625 9.663 17.67 25.813 1.103 1.657 20.43 29.817M280.186 347.37c-.276.415-.552.83-.552 1.38M188.528 68.67l-.415.828M152.914 69.222c.415 0 .69-.138 1.104-.276M141.318 68.118c.138.415.415.966.69 1.38M188.528 68.67c-.415-.138-.552-.553-.69-.967 0-.552 0-.966.275-1.38.138-.276.276-.415.415-.552.138-.137.276-.137.414-.275.138-.138.276-.138.276-.138.414-.276.828-.276 1.242 0h.138M142.285 90.48c.552 1.104 1.242 1.933 2.21 2.07.965.276 1.38 0 1.38-.69 0-.414-.14-.55-.14-.69-.275-.55-.828-.828-1.656-.966-.69 0-1.38 0-1.795.276" stroke="#B99D62"/><path d="M142.285 90.48c-.415 0-.69.138-.828.414-.967.552-1.794.69-2.76.138M187.01 213.473l.55.69M187.01 213.473l.275.275.276.415M142.008 69.498c.138.276.276.552.415.966.138 0 .138.138.138.276.83 1.795 1.658 3.45 2.21 5.246l.828 2.484c.414 1.657.552 3.313.276 4.97H184.525c-.138-1.657-.138-3.313.138-4.97.138-.828.415-1.656.69-2.484.553-1.795 1.243-3.45 2.21-5.107 0-.14.137-.277.137-.415.138-.415.276-.69.414-.966M194.74 210.712l-1.105-1.38" stroke="#B99D62"/><path d="M152.914 69.222c.276 1.794-.414 2.898-2.07 3.45-2.21.553-3.866-.137-4.97-1.932-.967-1.933-.967-3.037.275-3.727 1.104-.552 1.794-1.38 2.07-2.485.138-.966.276-1.656.276-2.07 0-.276.276-.828.83-1.104-.69.138-1.106.276-1.244.138-.414-.276-.966-.552-1.794-.966-.83-.414-1.657-.414-2.485-.138-.966.415-1.795 1.104-2.623 2.21.69-1.52.276-2.762-1.656-3.866-.415-.276-.966-.276-1.657 0-.828.276-1.52.414-2.07.138-.552-.138-.83-.138-1.104-.415 1.656 2.07 3.174 4.142 4.555 6.212" stroke="#B99D62"/><path d="M139.248 64.667c-.414.276-.552.552-.69.967 0 .138 0 .275.138.414 0 .415 0 .69.276 1.105.137.414.552.69.966.966.552.275.966.275 1.38 0M141.457 67.842c.138-.138.276-.553.276-.828.137-.415 0-.69-.138-1.105v-.276c-.276-.415-.552-.69-.967-.83 0-.137-.138-.137-.138-.137-.552-.275-.828-.275-1.242 0M177.07 69.222c-.276 0-.69-.138-.828-.276M188.113 69.498c.138-.276.276-.414.415-.83M279.496 348.75h.138M283.5 354.687l11.18 16.288c2.9.276 4.97-1.242 6.35-4.417l-10.768-15.875M279.496 348.75c-2.21 2.9-4.832 3.866-8.145 2.762 3.59 5.245 7.593 6.35 12.148 3.175M268.59 333.704c-1.657-.552-2.347-1.794-2.208-4.003M278.39 347.232l1.105 1.52M273.974 342.953c-.414.138-.828.138-1.104.276-.966 0-1.657-.554-1.795-1.52-.414-1.105-.275-2.07.276-3.037.69-.966 1.52-1.52 2.762-1.794M218.62 313.827c6.626 4.556 19.05 8.145 37.41 10.905 1.518 1.795 2.483 4.003 2.898 6.764.414 2.898.552 5.936.552 8.973 0 1.517.69 2.76 2.07 3.587M272.593 334.67c.552.553 1.104 1.243 1.52 2.21M272.593 334.67c-.276-.137-.552-.275-.69-.413-.276-.138-.552-.276-.69-.276-.828-.275-1.52-.413-2.07-.413M266.934 345.576l.276.276c3.313 4.003 7.04 4.417 11.18 1.38.14 0 .277-.138.277-.138.138-.138.276-.276.415-.276v-.414c0-.552-.138-1.242-.276-1.933-.276-.55-.414-.965-.69-1.24" stroke="#B99D62"/><path d="M261.688 344.057c.552.415 1.38.83 2.346 1.105 1.105.138 2.07.414 2.9.414h.275c1.655.138 3.036-.138 4.278-.552 1.104-.552 1.933-1.242 2.484-2.07M274.112 336.88c3.727 0 6.212 1.518 7.316 4.416M265.278 334.947c.69.137 1.242 0 1.656-.415 0-.138.138-.138.276-.276.414-.276.83-.553 1.38-.553M268.59 333.704c.138-.137.276-.137.552-.137M266.382 329.7l-.69-1.103-.828-1.242-6.074-8.835M277.425 326.527v.828M277.425 327.355c0 .552-.276 1.104-.828 1.242-.414.138-.69.414-1.104.552-1.657 1.24-2.623 2.898-2.9 5.106v.414M257.27 316.174l.69 1.104.83 1.242M99.907 331.772c0-.276-.276-.414-.552-.552-.69-.69-1.657-1.104-2.9-1.242-1.38 0-2.345.414-3.173 1.104-.69.69-1.52 1.105-2.347 1.105-.276-.138-.414-.415-.69-.553-3.45-2.898-2.21-5.383 4.14-7.454.69-.138 1.38-.414 2.07-.69 6.075-2.347 12.84-5.936 20.293-10.905 0 0 0-.138-.138-.138-.276-.275-.552-.552-.828-.69-2.21-1.794-4.003-3.727-5.383-6.074-.14.83-1.52 1.52-3.866 2.07-2.485.553-4.003.69-4.556.415-5.383 6.626-11.595 11.043-18.497 13.39-1.656.552-3.45.966-5.106 1.242-7.178 1.38-11.87 3.175-14.356 5.383h-3.313c-1.242.138-2.347 0-3.45 0-1.105-.137-2.21-.275-3.314-.137-1.103 0-2.07.275-2.76.966-.967.69-1.52 1.657-1.52 2.76v.553M80.443 353.583c.83-.69 1.38-1.38 1.933-2.21.138-.137.276-.414.276-.69.276-.966.276-2.07.415-3.174 0-1.105-.276-2.21-.69-3.176-.415-.966-.828-2.07-1.38-3.037-.69-1.104-.553-2.07.414-2.898.83-.69 1.795-.967 3.038-1.105 1.104 0 2.208 0 3.45.276.83.14 1.657.553 2.348 1.105l.414.415c.69.828 1.518 1.242 2.76 1.38h2.485c.138 0 .414 0 .552-.138.276 0 .415-.138.69-.276.69-.276 1.104-.966 1.52-1.794M62.636 349.717c1.242 0 2.208 0 3.313-.275 1.242-.553 2.07-1.243 2.484-1.933.552-.967.966-2.072.828-3.314-.138-1.104-.276-2.346-.276-3.45 0-1.106.276-2.21.967-3.176.414-.69 1.104-1.242 1.794-1.657.552.552 1.242 1.38 1.794 2.485.69 1.104.968 2.208.83 3.313 0 1.105-.276 2.072-.966 2.9-.69.828-1.243 1.656-1.795 2.623-.553.83-.83 1.794-.69 2.9-.14 1.103.414 1.932 1.518 2.483.414.276.552.276.69.138M64.155 335.084c.138-.552.138-.966 0-1.38" stroke="#B99D62"/><path d="M53.112 338.26c.966.414 2.07.552 3.313.276.415-.276.83-.552 1.242-.966.415-.83 1.243-1.52 2.21-1.933.827-.553 1.93-.828 3.174-.69.276 0 .69 0 1.105.137" stroke="#B99D62"/><path d="M64.155 335.084c0 .553-.276 1.105-.69 1.795-.414.965-1.104 1.793-1.932 2.483-.83.69-1.933 1.242-2.9 1.657-1.103.414-1.932.966-2.622 1.656-.828.83-1.104 1.795-1.24 3.037 0 .414.136.69.274.967" stroke="#B99D62"/><path d="M62.636 349.717c0-.275 0-.552.138-.828 0-1.38-.414-2.347-1.52-2.762-.965-.276-2.07-.414-3.312-.552-1.242 0-2.208.276-2.9 1.105" stroke="#B99D62"/><path d="M55.044 346.68c-2.623 4.418-1.656 8.697 2.9 12.838-1.243-3.865.275-7.178 4.692-9.8M80.443 353.583c-.414-.69-.828-1.105-1.794-1.38-1.105-.553-2.21-.69-3.314-.415-.828.138-1.38.415-1.795.69-.136.138-.274.138-.413.276" stroke="#B99D62"/><path d="M73.127 352.754c-.83 6.074 1.932 9.525 8.696 9.938-2.76-2.346-3.174-5.383-1.38-9.11M98.665 338.26c3.59-.966 6.625-.276 9.11 2.21 0-5.66-2.623-8.56-7.868-8.698" stroke="#B99D62"/><path d="M98.665 338.26c-.967-.138-1.657-.552-1.794-1.52-.414-1.24-.275-2.207.277-3.036.69-.966 1.657-1.656 2.76-1.932M284.465 353.72c1.52.415 3.037 0 4.417-1.38.553-.552.966-1.104 1.38-1.656M284.465 353.72c-.138 0-.138.138-.138.276-.276.138-.552.414-.828.69M279.634 348.75c.138-.275.275-.414.275-.552.828-.137 1.518.138 2.208.83.966.69 1.657 1.518 1.932 2.622.276.69.415 1.38.415 1.933v.137M281.428 341.296c.552-.276 1.105-.69 1.52-1.242.966-1.104 1.24-3.037 1.103-5.383v-.413c-.136-2.485-.274-4.83-.274-6.902M281.428 341.296c.138.83.415 1.657.552 2.485v1.52c-1.242-.967-2.484-1.795-3.865-2.07-1.243-.416-2.623-.416-4.142-.277M280.186 347.37c0-.137-.138-.137-.276-.137-.414 0-.828-.138-1.242-.138M288.882 329.563c0-.69.138-1.518.138-2.208" stroke="#B99D62"/><path d="M288.882 329.563c0 1.38.138 2.9.138 4.694 0 1.104.138 2.346.138 3.588.276 3.45-.414 6.074-1.933 8.007l-.138.138v.138c-1.657 1.657-3.865 2.07-6.902 1.243M290.262 350.684c1.104-1.657 1.933-3.59 2.208-5.798.552-3.037 1.105-6.35 1.933-10.215v-.413c.553-3.59-1.242-5.107-5.52-4.694M283.775 322.938c-.138-.69-.276-1.38-.552-1.933-.966-2.623-3.175-3.313-6.626-2.208-2.347.828-4.832 1.104-7.454.966M53.112 338.26c.276-.415.276-1.104.276-1.795 0-1.104-.276-2.208-1.104-3.174-.69-.828-1.656-1.24-2.623-.966M49.66 332.324c-5.244 1.52-6.9 5.384-5.244 11.872 1.38-4.832 4.278-6.764 8.696-5.936M288.882 327.355c.276-3.728-1.518-5.107-5.107-4.417" stroke="#B99D62"/><path stroke="#B99D62" d="M283.775 327.355c0-.966 0-1.933.138-2.76-.138-.554-.138-1.105-.138-1.658M141.318 68.118c0-.138.138-.138.138-.276M274.25 327.355c-1.657-2.347-3.175-4.556-4.694-6.902l-.414-.69-46.795-68.33-10.905-16.15-4.694-6.902-6.21-9.11-5.798-8.558M141.457 67.842c.138.552.276.966.552 1.656M154.018 68.946c0-.138.138-.138.138-.276.414-.275.552-.69.552-1.242 0-.414-.138-.966-.552-1.242-.276-.414-.69-.552-1.243-.552-.552 0-.966.138-1.38.552-.276.276-.414.83-.414 1.242 0 .552.137.967.413 1.242.415.415.828.553 1.38.553M193.635 209.332l.553.69.552.69"/><path d="M193.635 209.332l-2.346-3.45-10.492-15.46-12.423-18.084-2.76-4.003L150.98 146.8l-64.6-94.557 28.436-19.326 2.208 3.175c.828 1.104 1.933 1.794 3.313 2.07 1.38.276 2.76 0 4.003-.828 1.104-.828 1.933-1.932 2.208-3.45.276-1.38 0-2.762-.828-4.004h-.138l-1.38-2.07 1.52-1.105h.137c.413-.276.827-.69 1.24-1.104.415-.69.69-1.38.967-2.208.276-1.52 0-2.9-.828-4.003-.83-1.243-1.934-2.072-3.452-2.21-1.38-.276-2.623-.138-3.727.552l-1.793 1.242-1.38-1.933c-.828-1.24-1.933-1.93-3.45-2.207-1.38-.276-2.762 0-4.005.828-1.104.83-1.932 1.934-2.208 3.314-.276 1.38 0 2.624.69 3.866l2.485 3.59L81.96 45.754 60.704 14.56l3.313-2.21c1.104-.828 1.795-1.932 2.07-3.312.138-1.38-.138-2.76-.966-3.865-.827-1.243-1.932-2.07-3.312-2.346-1.518-.276-2.76 0-4.003.966h-.138l-1.932 1.38-1.104-1.518v-.138c-.828-1.105-1.932-1.933-3.45-2.208-1.38-.277-2.76 0-4.003.827-1.243.828-1.933 2.07-2.21 3.45-.275 1.38-.137 2.624.69 3.728L46.9 11.11l-1.933 1.38h-.138c-1.105.828-1.933 1.932-2.21 3.45-.275 1.38 0 2.762.83 4.004.828 1.104 1.932 1.933 3.45 2.21 1.38.275 2.623 0 3.727-.69l3.727-2.486 21.258 31.197-9.525 6.488-4.14 2.9-2.07 1.38-8.284 5.658-3.727 2.486-2.485-3.45c-.828-1.243-1.932-1.934-3.312-2.072-.828-.276-1.52-.138-2.347 0-.55.138-1.103.414-1.655.83-1.104.827-1.932 1.93-2.208 3.312-.276 1.52 0 2.76.828 4.14h.138l1.242 1.934-1.795 1.242c-1.104.69-1.794 1.795-1.932 3.175-.276 1.518 0 2.76.828 4.003.414.69.967 1.242 1.657 1.656.414.276 1.104.415 1.794.553 1.38.274 2.76 0 3.865-.83h.138l1.52-1.104.55.966.83 1.104v.138c.828 1.105 1.932 1.933 3.45 2.21 1.38.275 2.762 0 4.004-.83.414-.414.828-.69 1.242-1.104.415-.69.828-1.38.966-2.347.276-1.38 0-2.484-.69-3.727l-2.21-3.313 1.243-.828 8.697-5.936 7.454-5.108 10.353-7.04 67.5 98.836 4.97 7.316 8.558 12.423 5.66 8.42 1.794 2.623 8.282 12.147.83 1.243 9.385 13.804" stroke="#B99D62"/><path d="M138.696 91.032c-6.074 1.104-7.73 5.936-5.108 14.632 1.243-4.417 4.28-5.52 9.25-3.313 3.588-3.174 6.487-1.794 8.833 4.004.14.138.277.276.277.414.552 1.38.966 2.76 1.52 4.556v.275c.136.275.136.69.413 1.104-2.208 6.487-7.178 7.454-14.908 3.313 1.242 3.037 3.036 4.97 5.66 5.936 2.484.967 4.97.967 7.316-.138.414-.275.828-.828 1.242-1.104 3.037-2.76 4.555-5.66 4.555-8.695-2.484-3.175-4.417-7.04-5.52-11.87-1.243-4.97-3.175-8.835-5.798-11.46-.414-.136-.828-.274-.966-.55-1.38-.415-2.622-.553-3.588-.415-.966.138-1.794.414-2.484.966-.554.552-.692 1.242-.692 2.346M166.44 59.007c-.413-.276-.827-.552-1.24-.414h-.14c-.55-.14-1.104.138-1.38.414 0 .138-.138.276-.138.415-.276.275-.414.69-.414 1.104 0 .415.138.966.552 1.242.414.415.966.553 1.52.553.413 0 .827-.137 1.24-.552.415-.276.69-.828.69-1.242 0-.414-.137-.83-.414-1.104-.136-.14-.136-.277-.275-.415" stroke="#B99D62"/><path d="M176.243 68.946c-.83 2.484-2.347 3.59-4.694 3.175-2.347-.275-3.728-2.07-3.866-4.968-.138-2.9.414-4.28 1.794-4.28 1.38 0 2.347-.414 3.037-1.104.69-.828 1.104-1.38 1.38-1.656.138-.415.552-.552 1.104-.552-.553-.138-.967-.276-1.105-.553-.276-.276-.552-.966-.966-1.656-.553-.69-1.243-1.24-2.072-1.38-.966-.137-1.932 0-2.76.415.275-.414.414-1.104.552-1.656.138-1.244-.138-2.07-.828-2.624-.415-.138-.69-.276-1.242-.552-.83-.275-1.243-1.104-1.52-2.07-.138.966-.69 1.795-1.518 2.07-.552.276-.966.415-1.242.552-.69.553-1.104 1.38-.828 2.623 0 .55.276 1.24.552 1.655-.828-.414-1.794-.552-2.76-.414-.967.14-1.657.69-2.07 1.38-.415.69-.83 1.38-.967 1.657-.138.276-.553.415-1.243.553.69 0 1.105.137 1.243.552.137.275.69.828 1.38 1.656.69.69 1.656 1.105 2.898 1.105 1.38 0 2.07 1.38 1.933 4.28-.138 2.897-1.52 4.692-4.003 4.968-2.208.416-3.727-.69-4.417-3.174" stroke="#B99D62"/><path d="M177.07 69.222h.138c.552 0 .966-.138 1.242-.553.415-.276.553-.69.553-1.243 0-.414-.138-.966-.553-1.242-.276-.414-.69-.552-1.242-.552s-.966.138-1.242.552c-.276.276-.552.83-.552 1.242 0 .552.276.967.552 1.242l.276.275M188.528 68.67c.414.137.69.137 1.242 0 .414-.138.69-.415.967-.967.137-.276.275-.69.275-.966.138-.138.138-.276.138-.414-.138-.415-.276-.69-.552-.966" stroke="#B99D62"/><path d="M151.67 106.354c-.828-.552-1.655-.69-2.483-.966-.83-.138-1.657-.138-2.347-.276-.828 0-1.656.276-2.76.966-1.105.69-2.21 1.38-3.452 2.347-1.104.69-2.07 1.242-3.036 1.38-.83.138-1.657.138-2.21.138-.69-.138-1.103-.276-1.518-.415-.276-.138-.828-.414-1.52-.83-.55-.413-1.24-.965-1.793-1.93-.69-.967-.966-1.657-1.24-2.072-.69 2.21-.416 4.556.827 7.178.966 2.07 2.76 3.175 5.52 3.45 2.624.14 4.97-.69 6.627-2.484 1.794-1.932 3.727-3.036 5.66-3.588 1.933-.415 3.865.276 5.522 2.346M162.024 89.1c-.828 2.76-2.208 4.555-4.003 5.52-1.793.69-3.588.69-5.244-.55-1.657-1.106-2.623-2.9-2.76-5.66" stroke="#D35435"/></g></svg>
