<svg width="90" height="24" viewBox="0 0 90 24" xmlns="http://www.w3.org/2000/svg"><title>Group</title><g fill="none" fill-rule="evenodd"><path d="M22.618 23.936c.727 0 1.318-.59 1.318-1.318V1.373c0-.73-.59-1.32-1.318-1.32H1.373c-.73 0-1.32.59-1.32 1.32v21.245c0 .728.59 1.318 1.32 1.318h21.245zm-6.086 0v-9.248h3.104l.465-3.605h-3.568v-2.3c0-1.044.29-1.755 1.786-1.755h1.91V3.802c-.33-.044-1.464-.142-2.782-.142-2.752 0-4.636 1.68-4.636 4.765v2.658H9.698v3.605h3.112v9.248h3.722zM53.358 2.967c-1.08.48-2.24.803-3.46.95A6.043 6.043 0 0 0 52.547.583a12.042 12.042 0 0 1-3.824 1.46 6.014 6.014 0 0 0-4.396-1.9 6.022 6.022 0 0 0-6.023 6.022c0 .472.053.932.156 1.372a17.1 17.1 0 0 1-12.415-6.292 5.99 5.99 0 0 0-.815 3.027 6.02 6.02 0 0 0 2.68 5.013 5.99 5.99 0 0 1-2.73-.753v.076a6.027 6.027 0 0 0 4.832 5.904 6.023 6.023 0 0 1-2.72.104 6.03 6.03 0 0 0 5.626 4.182 12.09 12.09 0 0 1-7.48 2.578c-.487 0-.966-.028-1.438-.084A17.053 17.053 0 0 0 33.233 24c11.078 0 17.135-9.177 17.135-17.136 0-.26-.006-.52-.017-.78a12.264 12.264 0 0 0 3.006-3.117" fill="#000"/><path d="M54.543 23.842c-.48-.185-1.035-.713-1.285-1.22l-.184-.374V1.752l.184-.373c.257-.524.805-1.037 1.307-1.225L54.978 0H87.116l.425.16c.513.192 1.078.724 1.315 1.24l.163.352v20.496l-.163.353c-.237.516-.802 1.048-1.314 1.24l-.425.16-16.09-.004c-15.962-.004-16.093-.005-16.482-.154zm34.066-10.24V6.41H53.483v14.385H88.61v-7.193zm-7.284 6.15c-.143-.107-.393-1.476-.496-2.72-.05-.604-.076-.687-.27-.868-.305-.286-.253-.66.093-.66.13 0 .207-.253.262-.858.073-.808.41-2.074.715-2.68.368-.73 1.31-1.53 1.8-1.53.162 0 .593.14 1.123.364.082.035.243.1.358.148.27.108.55.706.613 1.314.057.54-.062 1.257-.295 1.778-.36.804-1.886 2.17-2.643 2.364l-.376.096v.713c.004.884.11 1.725.27 2.146.067.176.098.345.068.375-.06.06-1.143.075-1.222.017zm1.658-5.073c.304-.29.638-.69.742-.89.23-.438.356-1.166.295-1.688-.07-.594-.134-.637-.442-.29-.508.576-.814 1.25-1.047 2.308-.207.945-.228 1.085-.163 1.085.036 0 .313-.237.617-.526zm-9.392 1.076c-.048-.76-.104-1.408-.124-1.44-.02-.032-.296-.083-.613-.11-.652-.06-.767-.123-.767-.422 0-.334.24-.453.798-.395l.467.047-.003-.29a9.82 9.82 0 0 0-.075-.85c-.286-2.25-.34-3.848-.145-4.36.06-.156.12-.185.372-.185.292 0 .978.284 1.078.446.026.042.064.99.085 2.107.048 2.615.048 2.44-.012 2.72-.046.215-.034.242.11.242.134 0 .16-.036.14-.205-.02-.174.006-.208.174-.228.158-.018.3.074.69.444.268.257.488.507.488.555 0 .107-.264.166-1.317.298l-.313.04.037 1.402c.042 1.592.085 1.482-.607 1.536l-.376.03-.088-1.382zm-10.91 1.194a.848.848 0 0 1-.047-.242c0-.068-.087-.325-.192-.57-.212-.5-.58-1.667-.705-2.237-.14-.64-.304-1.167-.347-1.124-.023.024-.07.705-.102 1.515-.033.81-.105 1.625-.158 1.81l-.098.335-.735.068-.735.068-.165-.206c-.09-.114-.375-.556-.632-.982-.257-.427-.476-.766-.488-.755-.01.012.025.35.08.753.058.402.087.775.066.828-.065.17-.8.44-1.173.43-.344-.01-.417-.154-.528-1.03-.184-1.465-.204-1.892-.15-3.154l.053-1.247.328-.088c.528-.142 1.114-.115 1.275.058.075.08.435.726.8 1.435l.663 1.288.095-.707c.14-1.068.625-2.674.957-3.182.124-.19.136-.19.765-.143.75.058.862.132 1.012.672.335 1.204.45 1.688.788 3.333.082.395.198.86.26 1.034.06.174.11.38.11.454 0 .077.085.395.187.71.188.576.226.765.137.676-.027-.027-.094-.012-.15.034-.08.066-.862.274-1.077.286-.026 0-.068-.05-.093-.116zm2.983-.038c-.353-.083-.507-.165-1.008-.535-.576-.425-.668-.68-.678-1.88-.01-1.217.035-1.656.24-2.304.187-.594.595-1.095 1.272-1.562.46-.316.5-.318 1.41-.068.344.094.454.163.546.34.236.458.314 2.99.102 3.332-.074.12-1.2.126-1.713.01-.16-.036-.31-.047-.33-.024-.024.023-.04.28-.04.57.002.625.16 1.034.522 1.338.22.185.283.202.586.157.187-.028.426-.1.53-.163.26-.153.947-.018 1.18.23l.163.174-.395.15c-.724.275-1.78.38-2.39.236zm.47-4.24c0-.41-.03-.747-.066-.747-.078 0-.368.69-.456 1.082-.054.237-.042.278.1.335.402.163.42.133.42-.67zm4.28 4.122c-1.104-.14-1.5-.348-1.955-1.02-.337-.498-.355-.552-.396-1.16-.035-.525-.012-.758.13-1.31.43-1.647.574-1.94 1.394-2.794.373-.39.466-.448.702-.446.15 0 .418.068.597.15.178.08.365.146.414.146.05 0 .168.073.263.16.167.158.17.188.12.987-.028.454-.082.862-.12.907-.037.045-.076.52-.087 1.056l-.02.974-.42.117c-.37.105-.483.107-.966.015-.635-.122-.684-.092-.636.385.038.384.434 1.03.725 1.18.412.213 1.254.075 1.46-.24.138-.212.283-.218.598-.025.312.19.33.458.038.594-.712.33-1.167.41-1.842.324zm-.16-3.173c.025-.09.044-.536.043-.986-.002-.786-.007-.81-.118-.606-.143.265-.548 1.423-.548 1.568 0 .124.112.18.382.187.143.004.208-.04.24-.162zm6.994 3.04c-.385-.268-.705-1.397-.837-2.95-.073-.853-.062-1.265.037-1.425.07-.114.47-.062.827.106.66.313.64.263.705 1.792.065 1.55.105 1.865.23 1.823.165-.055.77-1.032.862-1.39.053-.206.085-.726.076-1.223-.022-1.196.058-1.272.922-.872.69.32.694.33.59 1.158-.095.744-.193 1.044-.407 1.24-.073.066-.21.268-.305.446-.095.18-.217.325-.27.325-.056 0-.114.05-.13.11-.028.1-.023.1.047 0 .044-.06.08-.077.08-.036 0 .164-.728.863-.972.933-.394.113-1.275.09-1.456-.036z" fill="#000"/><path d="M81.326 19.752c-.14-.104-.392-1.5-.5-2.757-.048-.565-.076-.654-.266-.832-.306-.286-.252-.66.095-.66.134 0 .2-.194.25-.72.085-.938.405-2.18.726-2.816.368-.73 1.31-1.532 1.8-1.532.162 0 .593.14 1.123.365.082.035.243.1.358.148.145.058.264.204.387.475.324.714.313 1.603-.03 2.517-.303.808-1.88 2.258-2.68 2.463l-.378.097v.713c.004.884.11 1.725.27 2.146.067.176.098.345.068.375-.06.06-1.143.075-1.222.017zm1.658-5.073c.308-.294.64-.696.752-.908.23-.444.347-1.125.284-1.67-.07-.604-.133-.64-.47-.255-.517.588-.787 1.223-1.08 2.538-.067.308-.14.618-.16.69-.07.242.12.132.674-.396zm-9.392 1.076c-.048-.76-.104-1.408-.124-1.44-.02-.032-.296-.083-.613-.11-.652-.06-.767-.123-.767-.422 0-.334.24-.453.798-.395l.467.047-.003-.29a9.82 9.82 0 0 0-.075-.85c-.286-2.25-.34-3.848-.145-4.36.06-.156.12-.185.372-.185.293 0 .978.284 1.08.446.036.06.098 2.29.12 4.36.002.124-.02.334-.05.467-.045.215-.033.242.112.242.133 0 .158-.036.138-.205-.02-.174.006-.208.177-.228.16-.02.3.073.703.462.277.267.48.51.45.54-.114.114-.623.25-.945.25-.713.005-.668-.1-.626 1.49.042 1.587.085 1.478-.607 1.532l-.376.03-.088-1.382zm-10.95.958a5.81 5.81 0 0 0-.27-.764c-.194-.44-.443-1.272-.705-2.348-.09-.368-.19-.72-.222-.78-.084-.154-.134.335-.178 1.75-.02.655-.082 1.343-.137 1.527l-.098.335-.735.068-.735.068-.165-.206c-.09-.114-.375-.556-.632-.982-.257-.427-.476-.766-.487-.755-.012.01.023.336.075.72.053.386.082.76.063.83-.05.195-.753.47-1.166.46-.344-.01-.417-.153-.527-1.03-.187-1.492-.203-1.84-.15-3.123l.053-1.278.328-.087c.527-.143 1.113-.115 1.274.058.075.08.435.726.8 1.435l.663 1.288.095-.708c.138-1.043.55-2.44.905-3.07l.14-.246.657.016c.54.013.683.042.804.163.187.187.54 1.524 1.06 4.01.06.297.16.68.22.85.06.17.11.37.11.446 0 .077.083.395.185.71.188.576.226.765.137.676-.027-.027-.094-.012-.15.034-.078.066-.86.274-1.076.286-.026 0-.087-.157-.135-.352zm3.023.198c-.353-.083-.507-.165-1.008-.535-.572-.422-.67-.684-.68-1.843-.01-1.186.042-1.702.238-2.328.183-.583.623-1.127 1.258-1.56.384-.26.418-.268.81-.21.7.1 1.046.24 1.164.466.23.446.312 2.993.105 3.33-.074.12-1.3.123-1.71.005-.138-.04-.278-.053-.313-.032-.036.022-.064.28-.064.576.002.635.16 1.042.523 1.347.22.186.283.203.586.158.187-.028.426-.102.53-.164.26-.15.947-.016 1.18.233l.163.173-.396.15c-.723.275-1.78.38-2.39.236zm.484-3.775c.034-.432-.02-1.212-.088-1.212-.07 0-.363.705-.448 1.082-.054.237-.042.278.1.335.324.13.41.09.435-.205zm4.264 3.657c-1.103-.14-1.5-.348-1.954-1.02-.34-.505-.355-.546-.398-1.198-.03-.465-.015-.756.05-.936.053-.144.15-.504.213-.8.23-1.055.478-1.51 1.273-2.34.364-.38.456-.438.692-.436.15 0 .418.068.597.15.178.08.364.146.414.146.05 0 .168.073.263.16.167.158.17.188.12.987-.028.454-.082.862-.12.907-.037.045-.076.52-.087 1.056l-.02.974-.42.117c-.37.105-.483.107-.966.015-.605-.116-.658-.093-.66.29 0 .297.264.824.57 1.13.214.215.305.253.595.253.477 0 .912-.145 1.045-.35.138-.21.283-.216.598-.023.375.23.333.465-.118.66-.633.272-1.064.338-1.686.26zm-.16-3.173c.026-.09.045-.536.044-.986-.002-.786-.007-.81-.118-.606-.143.265-.548 1.423-.548 1.568 0 .124.112.18.382.187.143.004.208-.04.24-.162zm6.995 3.04c-.388-.27-.704-1.405-.843-3.02-.068-.787-.055-1.197.043-1.355.07-.114.47-.062.827.106.66.313.64.263.705 1.792.065 1.55.105 1.865.23 1.823.165-.055.77-1.03.862-1.39.05-.196.086-.672.08-1.057a98.38 98.38 0 0 1-.012-.87c0-.214.143-.39.317-.39.186 0 1.07.418 1.19.563.08.1.083.248.01.818-.093.744-.19 1.044-.405 1.24-.073.066-.21.268-.305.446-.095.18-.217.325-.27.325-.056 0-.114.05-.13.11-.028.1-.023.1.047 0 .044-.06.08-.077.08-.036 0 .164-.73.863-.972.933-.393.113-1.275.09-1.456-.036z" fill="#030303"/></g></svg>